<svg width="192" height="192" viewBox="0 0 192 192" xmlns="http://www.w3.org/2000/svg" xmlns:usvg="https://github.com/RazrFalcon/resvg" usvg:version="0.13.1">
    <defs/>
    <g opacity="0.8">
        <path fill="#eba7a7" stroke="none" d="M 154 70.69 C 151.59121113142 69.83840830099 149.98589978829 67.55485291538 150 65 L 150 54 C 150 40.74516600406 139.25483399594 30 126 30 C 112.74516600406 30 102 40.74516600406 102 54 L 102 111.2 C 108.58637748124 105.26986665204 117.13733754292 101.99199862839 126 102 C 129.31370849898 102 132 104.68629150102 132 108 C 132 111.31370849898 129.31370849898 114 126 114 L 126 114 C 113.08319065927 114.00067220607 102.48373467028 124.22427914094 102.01692691907 137.1326506308 C 101.55011916785 150.04102212065 111.38341744175 161.00354240924 124.26643777836 161.93721847896 C 137.14945811497 162.87089454868 148.4606789687 153.44078909756 149.86 140.6 C 147.95123672132 140.86326185673 146.02683015772 140.99690120143 144.1 141 L 138 141 C 134.68629150102 141 132 138.31370849898 132 135 C 132 131.68629150102 134.68629150102 129 138 129 L 144.08 129 C 147.39635433154 129.00231240247 150.69044473375 128.45836516683 153.83 127.39 C 153.98948368991 127.32279270572 154.15316100173 127.26600669958 154.32 127.22 C 166.25613081308 122.9031554361 174.18385551648 111.54173511772 174.11649700145 98.84914560233 C 174.04913848642 86.15655608693 166.0012754873 74.87991688143 154.02 70.69 Z M 147 96 C 132.08831175457 96 120 83.91168824543 120 69 L 120 63 C 120 59.68629150102 122.68629150102 57 126 57 C 129.31370849898 57 132 59.68629150102 132 63 L 132 69 C 132 77.28427124746 138.71572875254 84 147 84 L 147 84 C 150.31370849898 84 153 86.68629150102 153 90 C 153 93.31370849898 150.31370849898 96 147 96 Z"/>
    </g>
    <g opacity="0.8">
        <path fill="#eba7a7" stroke="none" d="M 66 114 C 62.68629150102 114 60 111.31370849898 60 108 C 60 104.68629150102 62.68629150102 102 66 102 C 74.86266245708 101.99199862839 83.41362251876 105.26986665204 90 111.2 L 90 54 C 90 40.74516600406 79.25483399594 30 66 30 C 52.74516600406 30 42 40.74516600406 42 54 L 42 65 C 42.00557936589 67.54752101222 40.40183376435 69.82083040241 38 70.67 C 24.17219319271 75.487356424 15.84242407423 89.58347746225 18.2926389574 104.01994555669 C 20.74285384056 118.45641365113 33.2570855106 129.01480782831 47.9 129 L 54 129 C 57.31370849898 129 60 131.68629150102 60 135 C 60 138.31370849898 57.31370849898 141 54 141 L 48 141 C 46.03961575328 141.00693476281 44.08125842709 140.87325849481 42.14 140.6 C 43.5393210313 153.44078909756 54.85054188503 162.87089454868 67.73356222164 161.93721847896 C 80.61658255825 161.00354240924 90.44988083215 150.04102212065 89.98307308093 137.1326506308 C 89.51626532972 124.22427914094 78.91680934073 114.00067220607 66 114 Z M 45 96 C 41.68629150102 96 39 93.31370849898 39 90 C 39 86.68629150102 41.68629150102 84 45 84 C 53.28427124746 84 60 77.28427124746 60 69 L 60 69 L 60 63 C 60 59.68629150102 62.68629150102 57 66 57 C 69.31370849898 57 72 59.68629150102 72 63 L 72 69 C 72 83.91168824543 59.91168824543 96 45 96 Z"/>
    </g>
    <path fill="#000000" stroke="none" d="M 186.1 99.11 C 186.14476731561 82.80570341943 176.74949661078 67.94870065756 162 61 L 162 54 C 161.98689066029 38.12605658508 151.57811453644 24.13419651912 136.37807333514 19.55806290291 C 121.17803213384 14.9819292867 104.77464720674 20.90170389687 96 34.13 C 87.22535279326 20.90170389687 70.82196786616 14.9819292867 55.62192666486 19.55806290291 C 40.42188546356 24.13419651912 30.01310933971 38.12605658508 30 54 L 30 61 C 15.2820739179 67.92848067524 5.88854382 82.73281854084 5.88854382 99 C 5.88854382 115.26718145916 15.2820739179 130.07151932476 30 137 L 30 138 C 30.01310933971 153.87394341492 40.42188546356 167.86580348088 55.62192666486 172.44193709709 C 70.82196786616 177.0180707133 87.22535279326 171.09829610313 96 157.87 C 104.77464720674 171.09829610313 121.17803213384 177.0180707133 136.37807333514 172.44193709709 C 151.57811453644 167.86580348088 161.98689066029 153.87394341492 162 138 L 162 137 C 166.34214106696 134.93687483225 170.30189844809 132.15050413877 173.71 128.76 C 181.63425256709 120.92812717677 186.0957697051 110.2514537997 186.1 99.11 Z M 66 162 C 53.7509843855 162.00063744968 43.46697667678 152.77692559023 42.14 140.6 C 44.08125842709 140.87325849481 46.03961575328 141.00693476281 48 141 L 54 141 C 57.31370849898 141 60 138.31370849898 60 135 C 60 131.68629150102 57.31370849898 129 54 129 L 47.9 129 C 33.27935525426 128.98689324619 20.79745837305 118.43598813734 18.35015455389 104.02161584491 C 15.90285073474 89.60724355247 24.2029734896 75.52792145859 38 70.69 C 40.40878886858 69.83840830099 42.01410021171 67.55485291538 42 65 L 42 54 C 42 40.74516600406 52.74516600406 30 66 30 C 79.25483399594 30 90 40.74516600406 90 54 L 90 111.2 C 83.41362251876 105.26986665204 74.86266245708 101.99199862839 66 102 C 62.68629150102 102 60 104.68629150102 60 108 C 60 111.31370849898 62.68629150102 114 66 114 C 79.25483399594 114 90 124.74516600406 90 138 C 90 151.25483399594 79.25483399594 162 66 162 Z M 154.32 127.22 C 154.15316100173 127.26600669958 153.98948368991 127.32279270572 153.83 127.39 C 150.69044473375 128.45836516683 147.39635433154 129.00231240247 144.08 129 L 138 129 C 134.68629150102 129 132 131.68629150102 132 135 C 132 138.31370849898 134.68629150102 141 138 141 L 144.1 141 C 146.02683015772 140.99690120143 147.95123672132 140.86326185673 149.86 140.6 C 148.4606789687 153.44078909756 137.14945811497 162.87089454868 124.26643777836 161.93721847896 C 111.38341744175 161.00354240924 101.55011916785 150.04102212065 102.01692691907 137.1326506308 C 102.48373467028 124.22427914094 113.08319065927 114.00067220607 126 114 C 129.31370849898 114 132 111.31370849898 132 108 C 132 104.68629150102 129.31370849898 102 126 102 L 126 102 C 117.13733754292 101.99199862839 108.58637748124 105.26986665204 102 111.2 L 102 54 C 102 40.74516600406 112.74516600406 30 126 30 C 139.25483399594 30 150 40.74516600406 150 54 L 150 65 C 149.99442063411 67.54752101222 151.59816623565 69.82083040241 154 70.67 C 165.9812754873 74.85991688143 174.02913848642 86.13655608693 174.09649700145 98.82914560233 C 174.16385551648 111.52173511772 166.23613081308 122.8831554361 154.3 127.2 Z"/>
    <path fill="#000000" stroke="none" d="M 72 69 L 72 63 C 72 59.68629150102 69.31370849898 57 66 57 C 62.68629150102 57 60 59.68629150102 60 63 L 60 69 C 60 77.28427124746 53.28427124746 84 45 84 L 45 84 C 41.68629150102 84 39 86.68629150102 39 90 C 39 93.31370849898 41.68629150102 96 45 96 C 59.91168824543 96 72 83.91168824543 72 69 Z"/>
    <path fill="#000000" stroke="none" d="M 147 84 C 138.71572875254 84 132 77.28427124746 132 69 L 132 69 L 132 63 C 132 59.68629150102 129.31370849898 57 126 57 C 122.68629150102 57 120 59.68629150102 120 63 L 120 69 C 120 83.91168824543 132.08831175457 96 147 96 C 150.31370849898 96 153 93.31370849898 153 90 C 153 86.68629150102 150.31370849898 84 147 84 Z"/>
</svg>
