<svg width="192" height="192" viewBox="0 0 192 192" xmlns="http://www.w3.org/2000/svg" xmlns:usvg="https://github.com/RazrFalcon/resvg" usvg:version="0.13.1">
    <defs/>
    <path fill="none" stroke="none" visibility="hidden" d="M 154 70.7 C 151.58772228088 69.84720526634 149.98162467038 67.55851617138 150 65 L 150 54 C 150 40.74516600406 139.25483399594 30 126 30 C 112.74516600406 30 102 40.74516600406 102 54 L 102 111.2 C 108.59541254089 105.28463447772 117.14048903983 102.0090218198 126 102 C 129.31370849898 102 132 104.68629150102 132 108 C 132 111.31370849898 129.31370849898 114 126 114 C 113.08838312438 114.02219340676 102.50827079426 124.25554391336 102.05598218843 137.15925570134 C 101.6036935826 150.06296748931 111.44134184934 161.01198187823 124.3197179573 161.93814153614 C 137.19809406527 162.86430119406 148.50122036502 153.43564405953 149.9 140.6 C 147.98021804657 140.88587300616 146.04085060797 141.01962248468 144.1 141 L 138 141 C 134.68629150102 141 132 138.31370849898 132 135 C 132 131.68629150102 134.68629150102 129 138 129 L 144.1 129 C 147.39811571144 128.98911413781 150.67310472601 128.44890976427 153.8 127.4 C 154 127.3 154.1 127.3 154.3 127.2 C 166.21427658131 122.87095071962 174.12173075509 111.52051584938 174.05442348223 98.84431279567 C 173.98711620938 86.16810974196 165.95957570384 74.90228546294 154 70.7 Z M 147 96 C 132.08831175457 96 120 83.91168824543 120 69 L 120 63 C 120 59.68629150102 122.68629150102 57 126 57 C 129.31370849898 57 132 59.68629150102 132 63 L 132 69 C 132 77.28427124746 138.71572875254 84 147 84 C 150.31370849898 84 153 86.68629150102 153 90 C 153 93.31370849898 150.31370849898 96 147 96 Z"/>
    <path fill="none" stroke="none" visibility="hidden" d="M 66 114 C 62.68629150102 114 60 111.31370849898 60 108 C 60 104.68629150102 62.68629150102 102 66 102 C 74.85951096017 102.0090218198 83.40458745911 105.28463447772 90 111.2 L 90 54 C 90 40.74516600406 79.25483399594 30 66 30 C 52.74516600406 30 42 40.74516600406 42 54 L 42 65 C 41.9743209403 67.54456578962 40.38417719762 69.81052062295 38 70.7 C 24.21823977185 75.54808137652 15.93279488465 89.61907016512 18.37865894886 104.02249187661 C 20.82452301308 118.42591358809 33.29041123336 128.9730910943 47.9 129 L 54 129 C 57.31370849898 129 60 131.68629150102 60 135 C 60 138.31370849898 57.31370849898 141 54 141 L 48 141 C 46.02604432774 141.01617585957 44.0537092933 140.88245823012 42.1 140.6 C 43.49877963498 153.43564405953 54.80190593473 162.86430119406 67.6802820427 161.93814153614 C 80.55865815066 161.01198187823 90.3963064174 150.06296748931 89.94401781157 137.15925570134 C 89.49172920574 124.25554391336 78.91161687562 114.02219340676 66 114 Z M 45 96 C 41.68629150102 96 39 93.31370849898 39 90 C 39 86.68629150102 41.68629150102 84 45 84 C 53.28427124746 84 60 77.28427124746 60 69 L 60 63 C 60 59.68629150102 62.68629150102 57 66 57 C 69.31370849898 57 72 59.68629150102 72 63 L 72 69 C 72 83.91168824543 59.91168824543 96 45 96 Z"/>
    <path fill="#000000" stroke="none" d="M 186.1 99.1 C 186.1015617492 82.81067911662 176.71910069172 67.97782574359 162 61 L 162 54 C 162.00011082965 38.12051167222 151.59586171246 24.11647561343 136.39242512665 19.5324091277 C 121.18898854083 14.94834264198 104.77771744064 20.86709305947 96 34.1 C 87.22228255936 20.86709305947 70.81101145917 14.94834264198 55.60757487335 19.5324091277 C 40.40413828754 24.11647561343 29.99988917035 38.12051167222 30 54 L 30 61 C 15.2820739179 67.92848067524 5.88854382 82.73281854084 5.88854382 99 C 5.88854382 115.26718145916 15.2820739179 130.07151932476 30 137 L 30 138 C 29.99988917035 153.87948832778 40.40413828754 167.88352438657 55.60757487335 172.4675908723 C 70.81101145917 177.05165735802 87.22228255936 171.13290694053 96 157.9 C 104.77771744064 171.13290694053 121.18898854083 177.05165735802 136.39242512665 172.4675908723 C 151.59586171246 167.88352438657 162.00011082965 153.87948832778 162 138 L 162 137 C 176.68080903126 130.08363466196 186.063426069 115.32839873953 186.1 99.1 Z M 66 162 C 53.74444052541 161.99818778241 43.45040456301 152.78093382445 42.1 140.6 C 44.05335070474 140.88582636745 46.02594502792 141.0195615758 48 141 L 54 141 C 57.31370849898 141 60 138.31370849898 60 135 C 60 131.68629150102 57.31370849898 129 54 129 L 47.9 129 C 33.29041123336 128.9730910943 20.82452301308 118.42591358809 18.37865894886 104.02249187661 C 15.93279488465 89.61907016512 24.21823977185 75.54808137652 38 70.7 C 40.41227771912 69.84720526634 42.01837532962 67.55851617138 42 65 L 42 54 C 42 40.74516600406 52.74516600406 30 66 30 C 79.25483399594 30 90 40.74516600406 90 54 L 90 111.2 C 83.40458745911 105.28463447772 74.85951096017 102.0090218198 66 102 C 62.68629150102 102 60 104.68629150102 60 108 C 60 111.31370849898 62.68629150102 114 66 114 C 79.25483399594 114 90 124.74516600406 90 138 C 90 151.25483399594 79.25483399594 162 66 162 Z M 154.3 127.2 C 154.1 127.2 154 127.3 153.8 127.4 C 150.6812898549 128.48149469428 147.40082912458 129.02260161886 144.1 129 L 138 129 C 134.68629150102 129 132 131.68629150102 132 135 C 132 138.31370849898 134.68629150102 141 138 141 L 144.1 141 C 146.04074729462 141.01615886272 147.97984490234 140.88242799322 149.9 140.6 C 148.50122036502 153.43564405953 137.19809406527 162.86430119406 124.3197179573 161.93814153614 C 111.44134184934 161.01198187823 101.6036935826 150.06296748931 102.05598218843 137.15925570134 C 102.50827079426 124.25554391336 113.08838312438 114.02219340676 126 114 C 129.31370849898 114 132 111.31370849898 132 108 C 132 104.68629150102 129.31370849898 102 126 102 C 117.14048903983 102.0090218198 108.59541254089 105.28463447772 102 111.2 L 102 54 C 102 40.74516600406 112.74516600406 30 126 30 C 139.25483399594 30 150 40.74516600406 150 54 L 150 65 C 150.0256790597 67.54456578962 151.61582280238 69.81052062295 154 70.7 C 163.76625217245 74.09855046737 171.09377809348 82.28719859516 173.39076397235 92.36954369178 C 175.68774985122 102.45188878841 172.63035186458 113.00645708064 165.3 120.3 C 162.18798519824 123.38424350358 158.43130259264 125.74070804709 154.3 127.2 Z"/>
    <path fill="#000000" stroke="none" d="M 72 69 L 72 63 C 72 59.68629150102 69.31370849898 57 66 57 C 62.68629150102 57 60 59.68629150102 60 63 L 60 69 C 60 77.28427124746 53.28427124746 84 45 84 C 41.68629150102 84 39 86.68629150102 39 90 C 39 93.31370849898 41.68629150102 96 45 96 C 59.91168824543 96 72 83.91168824543 72 69 Z"/>
    <path fill="#000000" stroke="none" d="M 147 84 C 138.71572875254 84 132 77.28427124746 132 69 L 132 63 C 132 59.68629150102 129.31370849898 57 126 57 C 122.68629150102 57 120 59.68629150102 120 63 L 120 69 C 120 83.91168824543 132.08831175457 96 147 96 C 150.31370849898 96 153 93.31370849898 153 90 C 153 86.68629150102 150.31370849898 84 147 84 Z"/>
</svg>
