<svg xmlns="http://www.w3.org/2000/svg" viewBox="0 0 192 192"><path d="M154,70.7a6,6,0,0,1-4-5.7V54a24,24,0,0,0-48,0v57.2a36,36,0,0,1,24-9.2,6,6,0,0,1,0,12,24,24,0,1,0,23.9,26.6,36.85,36.85,0,0,1-5.8.4H138a6,6,0,0,1,0-12h6.1a30.82,30.82,0,0,0,9.7-1.6c.2-.1.3-.1.5-.2a30,30,0,0,0-.3-56.5ZM147,96a27,27,0,0,1-27-27V63a6,6,0,0,1,12,0v6a15,15,0,0,0,15,15,6,6,0,0,1,0,12Z" fill="none"/><path d="M66,114a6,6,0,0,1,0-12,36,36,0,0,1,24,9.2V54a24,24,0,0,0-48,0V65a6.15,6.15,0,0,1-4,5.7A30,30,0,0,0,47.9,129H54a6,6,0,0,1,0,12H48a39,39,0,0,1-5.9-.4A24,24,0,1,0,66,114ZM45,96a6,6,0,0,1,0-12A15,15,0,0,0,60,69V63a6,6,0,0,1,12,0v6A27,27,0,0,1,45,96Z" fill="none"/><path d="M186.1,99.1A42.16,42.16,0,0,0,162,61V54A36,36,0,0,0,96,34.1,36,36,0,0,0,30,54v7a42,42,0,0,0,0,76v1a36,36,0,0,0,66,19.9A36,36,0,0,0,162,138v-1a42,42,0,0,0,24.1-37.9ZM66,162a24.05,24.05,0,0,1-23.9-21.4,38.14,38.14,0,0,0,5.9.4h6a6,6,0,0,0,0-12H47.9A30,30,0,0,1,38,70.7,6,6,0,0,0,42,65V54a24,24,0,0,1,48,0v57.2A36,36,0,0,0,66,102a6,6,0,0,0,0,12,24,24,0,0,1,0,48Zm88.3-34.8c-.2,0-.3.1-.5.2a29,29,0,0,1-9.7,1.6H138a6,6,0,0,0,0,12h6.1a37.7,37.7,0,0,0,5.8-.4A24,24,0,1,1,126,114a6,6,0,0,0,0-12,36,36,0,0,0-24,9.2V54a24,24,0,0,1,48,0V65a6.15,6.15,0,0,0,4,5.7,30,30,0,0,1,11.3,49.6A29.66,29.66,0,0,1,154.3,127.2Z"/><path d="M72,69V63a6,6,0,0,0-12,0v6A15,15,0,0,1,45,84a6,6,0,0,0,0,12A27,27,0,0,0,72,69Z"/><path d="M147,84a15,15,0,0,1-15-15V63a6,6,0,0,0-12,0v6a27,27,0,0,0,27,27,6,6,0,0,0,0-12Z"/></svg>