<svg xmlns="http://www.w3.org/2000/svg" viewBox="0 0 192 192"><path d="M154,70.69A6,6,0,0,1,150,65V54a24,24,0,0,0-48,0v57.2a35.82,35.82,0,0,1,24-9.2,6,6,0,0,1,0,12h0a24,24,0,1,0,23.86,26.6,42.66,42.66,0,0,1-5.76.4H138a6,6,0,0,1,0-12h6.08a30.2,30.2,0,0,0,9.75-1.61,4,4,0,0,1,.49-.17,30,30,0,0,0-.3-56.53ZM147,96a27,27,0,0,1-27-27V63a6,6,0,0,1,12,0v6a15,15,0,0,0,15,15h0a6,6,0,0,1,0,12Z" fill="#eba7a7" opacity="0.8" style="isolation:isolate"/><path d="M66,114a6,6,0,0,1,0-12,35.82,35.82,0,0,1,24,9.2V54a24,24,0,0,0-48,0V65a6,6,0,0,1-4,5.67A30,30,0,0,0,47.9,129H54a6,6,0,0,1,0,12H48a41,41,0,0,1-5.86-.4A24,24,0,1,0,66,114ZM45,96a6,6,0,0,1,0-12A15,15,0,0,0,60,69h0V63a6,6,0,0,1,12,0v6A27,27,0,0,1,45,96Z" fill="#eba7a7" opacity="0.8" style="isolation:isolate"/><path d="M186.1,99.11A42,42,0,0,0,162,61V54A36,36,0,0,0,96,34.13,36,36,0,0,0,30,54v7a42,42,0,0,0,0,76v1a36,36,0,0,0,66,19.87A36,36,0,0,0,162,138v-1a42.41,42.41,0,0,0,11.71-8.24A41.71,41.71,0,0,0,186.1,99.11ZM66,162a24,24,0,0,1-23.86-21.4A41,41,0,0,0,48,141h6a6,6,0,0,0,0-12H47.9A30,30,0,0,1,38,70.69,6,6,0,0,0,42,65V54a24,24,0,0,1,48,0v57.2A35.82,35.82,0,0,0,66,102a6,6,0,0,0,0,12,24,24,0,0,1,0,48Zm88.32-34.78a4,4,0,0,0-.49.17,30.2,30.2,0,0,1-9.75,1.61H138a6,6,0,0,0,0,12h6.1a42.66,42.66,0,0,0,5.76-.4A24,24,0,1,1,126,114a6,6,0,0,0,0-12h0a35.82,35.82,0,0,0-24,9.2V54a24,24,0,0,1,48,0V65a6,6,0,0,0,4,5.67,30,30,0,0,1,.3,56.53Z"/><path d="M72,69V63a6,6,0,0,0-12,0v6A15,15,0,0,1,45,84h0a6,6,0,0,0,0,12A27,27,0,0,0,72,69Z"/><path d="M147,84a15,15,0,0,1-15-15h0V63a6,6,0,0,0-12,0v6a27,27,0,0,0,27,27,6,6,0,0,0,0-12Z"/></svg>