<svg xmlns="http://www.w3.org/2000/svg" viewBox="0 0 192 192"><path d="M95.6,108h.5A138,138,0,0,0,162,91.2V60H30V91.2A136.73,136.73,0,0,0,95.6,108ZM87,84h18a6,6,0,0,1,0,12H87a6,6,0,0,1,0-12Z" fill="#ffb388" opacity="0.8" style="isolation:isolate"/><path d="M120,42a6,6,0,0,0-6-6H78a6,6,0,0,0-6,6v6h48Z" fill="none"/><path d="M96.2,120h-.6A149.06,149.06,0,0,1,30,104.7V156H162V104.7A149.94,149.94,0,0,1,96.2,120Z" fill="#ffb388" opacity="0.8" style="isolation:isolate"/><path d="M162,48H132V42a18.05,18.05,0,0,0-18-18H78A18.05,18.05,0,0,0,60,42v6H30A12,12,0,0,0,18,60v96a12,12,0,0,0,12,12H162a12,12,0,0,0,12-12V60A12,12,0,0,0,162,48ZM72,42a6,6,0,0,1,6-6h36a6,6,0,0,1,6,6v6H72ZM30,60H162V91.2A137.69,137.69,0,0,1,96.1,108h-.5A136.73,136.73,0,0,1,30,91.2Zm0,96V104.7A149.37,149.37,0,0,0,95.6,120h.6A149.94,149.94,0,0,0,162,104.7V156Z"/><path d="M87,96h18a6,6,0,0,0,0-12H87a6,6,0,0,0,0,12Z"/></svg>