<svg width="192" height="192" viewBox="0 0 192 192" xmlns="http://www.w3.org/2000/svg" xmlns:usvg="https://github.com/RazrFalcon/resvg" usvg:version="0.13.1">
    <defs/>
    <g opacity="0.8">
        <path fill="#ffb388" stroke="none" d="M 95.6 108 L 96.1 108 C 119.12418765626 107.98512722461 141.77875751277 102.20975888486 162 91.2 L 162 60 L 30 60 L 30 91.2 C 50.11208799737 102.21192653126 72.67057587423 107.98910025582 95.6 108 Z M 87 84 L 105 84 C 108.31370849898 84 111 86.68629150102 111 90 C 111 93.31370849898 108.31370849898 96 105 96 L 87 96 C 83.68629150102 96 81 93.31370849898 81 90 C 81 86.68629150102 83.68629150102 84 87 84 Z"/>
    </g>
    <path fill="none" stroke="none" visibility="hidden" d="M 120 42 C 120 38.68629150102 117.31370849898 36 114 36 L 78 36 C 74.68629150102 36 72 38.68629150102 72 42 L 72 48 L 120 48 Z"/>
    <g opacity="0.8">
        <path fill="#ffb388" stroke="none" d="M 96.2 120 L 95.6 120 C 72.85234121855 119.97233683267 50.41276386189 114.7387158943 30 104.7 L 30 156 L 162 156 L 162 104.7 C 141.51609135819 114.73895584897 119.01162751976 119.9717567111 96.2 120 Z"/>
    </g>
    <path fill="#000000" stroke="none" d="M 162 48 L 132 48 L 132 42 C 131.97253172215 32.0702744916 123.9297255084 24.02746827785 114 24 L 78 24 C 68.0702744916 24.02746827785 60.02746827785 32.0702744916 60 42 L 60 48 L 30 48 C 23.37258300203 48 18 53.37258300203 18 60 L 18 156 C 18 162.62741699797 23.37258300203 168 30 168 L 162 168 C 168.62741699797 168 174 162.62741699797 174 156 L 174 60 C 174 53.37258300203 168.62741699797 48 162 48 Z M 72 42 C 72 38.68629150102 74.68629150102 36 78 36 L 114 36 C 117.31370849898 36 120 38.68629150102 120 42 L 120 48 L 72 48 Z M 30 60 L 162 60 L 162 91.2 C 141.78361364489 102.22212326113 119.1258436453 107.99830741884 96.1 108 L 95.6 108 C 72.67057587423 107.98910025582 50.11208799737 102.21192653126 30 91.2 Z M 30 156 L 30 104.7 C 50.41647005208 114.72833695641 72.853609062 119.96138919501 95.6 120 L 96.2 120 C 119.01162751976 119.9717567111 141.51609135819 114.73895584897 162 104.7 L 162 156 Z"/>
    <path fill="#000000" stroke="none" d="M 87 96 L 105 96 C 108.31370849898 96 111 93.31370849898 111 90 C 111 86.68629150102 108.31370849898 84 105 84 L 87 84 C 83.68629150102 84 81 86.68629150102 81 90 C 81 93.31370849898 83.68629150102 96 87 96 Z"/>
</svg>
