<svg width="192" height="192" viewBox="0 0 192 192" xmlns="http://www.w3.org/2000/svg" xmlns:usvg="https://github.com/RazrFalcon/resvg" usvg:version="0.13.1">
    <defs/>
    <g opacity="0.8">
        <path fill="#bedaaa" stroke="none" d="M 155.94 86.58 L 96 32.12 L 36.06 86.58 C 36.02231714726 86.61692609202 36.00075140957 86.66724614662 36 86.72 L 36 156 L 72 156 L 72 120 C 72 113.37258300203 77.37258300203 108 84 108 L 108 108 C 114.62741699797 108 120 113.37258300203 120 120 L 120 156 L 156 156 L 156 86.63 C 156 86.63 156 86.61 155.94 86.58 Z"/>
    </g>
    <path fill="#000000" stroke="none" d="M 168 86.53 C 167.93812825258 83.23741558121 166.55850669491 80.10715152478 164.17 77.84 L 164.08 77.76 L 104.08 23.25 C 99.51249808722 19.02910714271 92.46750191278 19.02910714271 87.9 23.25 L 27.9 77.78 L 27.81 77.86 C 25.4126120428 80.148101154 24.03906058573 83.30618796868 24 86.62 L 24 156 C 24 162.62741699797 29.37258300203 168 36 168 L 72 168 C 78.62741699797 168 84 162.62741699797 84 156 L 84 120 L 108 120 L 108 156 C 108 162.62741699797 113.37258300203 168 120 168 L 156 168 C 162.62741699797 168 168 162.62741699797 168 156 Z M 156 156 L 120 156 L 120 120 C 120 113.37258300203 114.62741699797 108 108 108 L 84 108 C 77.37258300203 108 72 113.37258300203 72 120 L 72 156 L 36 156 L 36 86.72 C 36.00075140957 86.66724614662 36.02231714726 86.61692609202 36.06 86.58 L 96 32.12 L 155.93 86.58 C 155.93 86.58 155.99 86.65 155.99 86.58 Z"/>
</svg>
