<svg width="294" height="345" viewBox="-147 -70 294 345" xmlns="http://www.w3.org/2000/svg" xmlns:usvg="https://github.com/RazrFalcon/resvg" usvg:version="0.13.1">
    <defs/>
    <path fill="#a4c639" stroke="#ffffff" stroke-width="14.4" d="M 91 41 C 91 87.39191898579 50.2579122346 125 0 125 C -50.2579122346 125 -91 87.39191898579 -91 41 C -91 -5.39191898579 -50.2579122346 -43 0 -43 C 50.2579122346 -43 91 -5.39191898579 91 41 Z"/>
    <path fill="#a4c639" stroke="#ffffff" stroke-width="14.4" d="M -69 20 L 69 20 C 81.15026449628 20 91 29.84973550372 91 42 L 91 180 C 91 192.15026449628 81.15026449628 202 69 202 L -69 202 C -81.15026449628 202 -91 192.15026449628 -91 180 L -91 42 C -91 29.84973550372 -81.15026449628 20 -69 20 Z"/>
    <path fill="#a4c639" stroke="#ffffff" stroke-width="7.2" transform="matrix(-0.8746197071393957 0.48480962024633706 0.48480962024633706 0.8746197071393957 0 0)" d="M 20.5 -86 L 20.5 -86 C 24.0898508739 -86 27 -83.0898508739 27 -79.5 L 27 -6.5 C 27 -2.9101491261 24.0898508739 0 20.5 0 L 20.5 0 C 16.9101491261 0 14 -2.9101491261 14 -6.5 L 14 -79.5 C 14 -83.0898508739 16.9101491261 -86 20.5 -86 Z"/>
    <path fill="#a4c639" stroke="#ffffff" stroke-width="7.2" transform="matrix(-1 0 0 1 0 0)" d="M -119 41 L -119 41 C -105.74516600406 41 -95 51.74516600406 -95 65 L -95 150 C -95 163.25483399594 -105.74516600406 174 -119 174 L -119 174 C -132.25483399594 174 -143 163.25483399594 -143 150 L -143 65 C -143 51.74516600406 -132.25483399594 41 -119 41 Z"/>
    <path fill="#a4c639" stroke="#ffffff" stroke-width="7.2" transform="matrix(-1 0 0 1 -85 97)" d="M -119 41 L -119 41 C -105.74516600406 41 -95 51.74516600406 -95 65 L -95 150 C -95 163.25483399594 -105.74516600406 174 -119 174 L -119 174 C -132.25483399594 174 -143 163.25483399594 -143 150 L -143 65 C -143 51.74516600406 -132.25483399594 41 -119 41 Z"/>
    <path fill="#a4c639" stroke="#ffffff" stroke-width="7.2" transform="matrix(0.8746197071393957 0.48480962024633706 -0.48480962024633706 0.8746197071393957 0 0)" d="M 20.5 -86 L 20.5 -86 C 24.0898508739 -86 27 -83.0898508739 27 -79.5 L 27 -6.5 C 27 -2.9101491261 24.0898508739 0 20.5 0 L 20.5 0 C 16.9101491261 0 14 -2.9101491261 14 -6.5 L 14 -79.5 C 14 -83.0898508739 16.9101491261 -86 20.5 -86 Z"/>
    <path id="c" fill="#a4c639" stroke="#ffffff" stroke-width="7.2" d="M -119 41 L -119 41 C -105.74516600406 41 -95 51.74516600406 -95 65 L -95 150 C -95 163.25483399594 -105.74516600406 174 -119 174 L -119 174 C -132.25483399594 174 -143 163.25483399594 -143 150 L -143 65 C -143 51.74516600406 -132.25483399594 41 -119 41 Z"/>
    <path fill="#a4c639" stroke="#ffffff" stroke-width="7.2" transform="matrix(1 0 0 1 85 97)" d="M -119 41 L -119 41 C -105.74516600406 41 -95 51.74516600406 -95 65 L -95 150 C -95 163.25483399594 -105.74516600406 174 -119 174 L -119 174 C -132.25483399594 174 -143 163.25483399594 -143 150 L -143 65 C -143 51.74516600406 -132.25483399594 41 -119 41 Z"/>
    <path fill="#a4c639" stroke="none" d="M 91 41 C 91 87.39191898579 50.2579122346 125 0 125 C -50.2579122346 125 -91 87.39191898579 -91 41 C -91 -5.39191898579 -50.2579122346 -43 0 -43 C 50.2579122346 -43 91 -5.39191898579 91 41 Z"/>
    <path fill="#a4c639" stroke="none" d="M -69 20 L 69 20 C 81.15026449628 20 91 29.84973550372 91 42 L 91 180 C 91 192.15026449628 81.15026449628 202 69 202 L -69 202 C -81.15026449628 202 -91 192.15026449628 -91 180 L -91 42 C -91 29.84973550372 -81.15026449628 20 -69 20 Z"/>
    <path fill="#ffffff" stroke="#ffffff" stroke-width="7.2" d="M -95 44.5 L 95 44.5"/>
    <path fill="#ffffff" stroke="#ffffff" stroke-width="7.2" d="M -38 0 C -38 2.20913899932 -39.79086100068 4 -42 4 C -44.20913899932 4 -46 2.20913899932 -46 0 C -46 -2.20913899932 -44.20913899932 -4 -42 -4 C -39.79086100068 -4 -38 -2.20913899932 -38 0 Z"/>
    <path fill="#ffffff" stroke="#ffffff" stroke-width="7.2" d="M 46 0 C 46 2.20913899932 44.20913899932 4 42 4 C 39.79086100068 4 38 2.20913899932 38 0 C 38 -2.20913899932 39.79086100068 -4 42 -4 C 44.20913899932 -4 46 -2.20913899932 46 0 Z"/>
</svg>
