<svg width="2113" height="2500" viewBox="32.18585611720149 20.47 223.6851360941233 247.05999999999997" xmlns="http://www.w3.org/2000/svg" xmlns:usvg="https://github.com/RazrFalcon/resvg" usvg:version="0.13.1">
    <defs/>
    <path fill="#004482" stroke="none" d="M 252.71 93.61 C 252.79339667114 89.81716692043 251.8796056664 86.06889966702 250.06 82.74 C 248.17405140468 79.52219648503 245.45527404134 76.87251130373 242.19 75.07 C 213.24333333333 58.35666666667 184.28666666667 41.66666666667 155.32 25 C 147.52 20.49 139.96 20.65 132.21 25.23 C 120.69 32 63 65.09 45.81 75.06 C 38.73 79.16 35.29 85.44 35.29 93.6 L 35.29 194.4 C 35.2169335764 198.11266011189 36.09475588419 201.78230160251 37.84 205.06 C 39.72675330337 208.37585019449 42.49601494106 211.10357290761 45.84 212.94 C 63.03 222.94 120.73 255.99 132.25 262.79 C 140 267.37 147.56 267.53 155.37 263.02 C 184.31 246.3 213.26666666667 229.60333333333 242.24 212.93 C 245.58398505894 211.09357290761 248.35324669663 208.36585019449 250.24 205.05 C 251.98524411581 201.77230160251 252.8630664236 198.10266011189 252.79 194.39 L 252.79 93.61 Z"/>
    <path fill="#00599c" stroke="none" d="M 252.73 194.4 C 252.80529548419 198.11290046316 251.92734064561 201.7830959844 250.18 205.06 C 249.75097658154 205.84045329187 249.26639392941 206.58904994067 248.73 207.3 L 144 144 L 242.19 75.07 C 245.45219435837 76.87315073658 248.1675790366 79.52289634497 250.05 82.74 C 251.87750472073 86.06622651204 252.795051747 89.81575139007 252.71 93.61 C 252.73 127.21 252.73 194.4 252.73 194.4 Z"/>
    <path fill="#659ad2" stroke="none" d="M 250.05 82.74 L 37.81 205.06 C 36.07252326955 201.78374010658 35.2016082146 198.11763523099 35.28 194.41 L 35.28 93.6 C 35.28 85.44 38.73 79.16 45.8 75.06 C 63 65.09 120.69 32 132.22 25.21 C 139.95 20.63 147.52 20.47 155.32 24.98 C 184.26 41.7 213.21666666667 58.39666666667 242.19 75.07 C 245.45219435837 76.87315073658 248.1675790366 79.52289634497 250.05 82.74 Z"/>
    <path fill="#ffffff" stroke="none" d="M 148.2 184.72 C 133.6442197639 184.74038193849 120.23170003911 176.83465959785 113.2 164.09 C 112.84666666667 163.46333333333 112.51333333333 162.82333333333 112.2 162.17 C 103.38353766996 143.96155069197 109.57396031258 122.03666175647 126.61154089719 111.12801921749 C 143.64912148179 100.21937667851 166.15238506448 103.7725745982 179 119.4 C 179.53 120.04 180 120.71 180.53 121.4 C 180.77 121.73 181.01 122.06 181.23 122.4 L 216.3 102.2 C 215.44666666667 100.82666666667 214.55333333333 99.49333333333 213.62 98.2 C 213.13 97.51 212.62 96.85 212.14 96.2 C 186.87212431181 63.37452981547 140.70729044424 55.30408671985 105.80143879263 77.61010732202 C 70.89558714102 99.9161279242 58.82612909524 145.20025450583 78 181.92 C 78.34 182.56 78.69 183.19 79 183.82 C 92.81736349613 208.19870152646 118.39483002523 223.55851884242 146.40717790606 224.29945629184 C 174.41952578689 225.04039374127 200.77320632422 211.05417537593 215.86 187.44 L 181.57 166.71 C 174.19490541493 177.95590251427 161.64850514322 184.72727407236 148.2 184.72 Z"/>
</svg>
