<svg width="2500" height="1719" viewBox="0 2.5 24 19" xmlns="http://www.w3.org/2000/svg" xmlns:usvg="https://github.com/RazrFalcon/resvg" usvg:version="0.13.1">
    <defs/>
    <path fill="#d32f2f" stroke="none" d="M 24 17.702 L 24 13.902 C 24 14.797 23.02 15.619 21.384 16.269 L 12 13.902 L 12 17.702 L 21.384 20.069 C 23.02 19.42 24 18.598 24 17.702 Z"/>
    <path fill="#d32f2f" stroke="none" d="M 21.384 12.472 C 23.02 11.818 24 11 24 10.104 L 24 6.299 C 24 4.205 18.625 2.5 12 2.5 C 5.37 2.5 0 4.204 0 6.298 L 0 10.104 C 0 12.201 5.373 13.903 12 13.903 L 12 10.106 Z M 12 21.5 L 12 17.702 C 5.37 17.702 0 15.997 0 13.904 L 0 17.702 C 0 19.799 5.37 21.5 12 21.5 Z"/>
</svg>
