<svg width="103.8" height="105.2" viewBox="0 0 103.8 105.2" xmlns="http://www.w3.org/2000/svg" xmlns:usvg="https://github.com/RazrFalcon/resvg" usvg:version="0.13.1">
    <defs/>
    <g enable-background="new 0 0 200 200">
        <path id="path7" fill="#343434" stroke="none" d="M 38.6 52.6 C 38.6 45.7 44.2 40.1 51.1 40.1 C 58 40.1 63.6 45.7 63.6 52.6 C 63.6 59.5 58 65.1 51.1 65.1 C 44.2 65.2 38.6 59.5 38.6 52.6 Z M 51.1 0 C 26.5 0 5.9 16.8 0.1 39.6 C 0.1 39.8 0 39.9 0 40.1 C 0 41.5 1.1 42.6 2.5 42.6 L 23.7 42.6 C 24.7 42.6 25.6 42 26 41.1 L 26 41.1 C 30.4 31.6 39.9 25 51.1 25 C 66.3 25 78.7 37.4 78.7 52.6 C 78.7 67.8 66.3 80.2 51.1 80.2 C 40 80.2 30.4 73.6 26 64.1 L 26 64.1 C 25.6 63.2 24.7 62.6 23.7 62.6 L 2.5 62.6 C 1.1 62.6 0 63.7 0 65.1 C 0 65.3 0 65.4 0.1 65.6 C 5.9 88.4 26.5 105.2 51.1 105.2 C 80.2 105.2 103.8 81.6 103.8 52.5 C 103.8 23.5 80.2 0 51.1 0 Z"/>
    </g>
</svg>
