<svg width="192" height="192" viewBox="0 0 256 256" xmlns="http://www.w3.org/2000/svg" xmlns:usvg="https://github.com/RazrFalcon/resvg" usvg:version="0.13.1">
    <defs/>
    <path fill="none" stroke="none" visibility="hidden" d="M 0 0 L 256 0 L 256 256 L 0 256 Z"/>
    <path fill="none" stroke="#000000" stroke-width="16" stroke-linecap="round" stroke-linejoin="round" d="M 112 168 C 112 185.67311199459 97.67311199459 200 80 200 C 62.32688800541 200 48 185.67311199459 48 168 C 48 150.32688800541 62.32688800541 136 80 136 C 97.67311199459 136 112 150.32688800541 112 168 Z"/>
    <path fill="none" stroke="#000000" stroke-width="16" stroke-linecap="round" stroke-linejoin="round" d="M 32 224 C 43.33126291999 208.89164944001 61.11456180002 200 80 200 C 98.88543819998 200 116.66873708001 208.89164944001 128 224"/>
    <path fill="none" stroke="#000000" stroke-width="16" stroke-linecap="round" stroke-linejoin="round" d="M 112 64 C 112 81.67311199459 97.67311199459 96 80 96 C 62.32688800541 96 48 81.67311199459 48 64 C 48 46.32688800541 62.32688800541 32 80 32 C 97.67311199459 32 112 46.32688800541 112 64 Z"/>
    <path fill="none" stroke="#000000" stroke-width="16" stroke-linecap="round" stroke-linejoin="round" d="M 32 120 C 43.33126291999 104.89164944001 61.11456180002 96 80 96 C 98.88543819998 96 116.66873708001 104.89164944001 128 120"/>
    <path fill="none" stroke="#000000" stroke-width="16" stroke-linecap="round" stroke-linejoin="round" d="M 208 168 C 208 185.67311199459 193.67311199459 200 176 200 C 158.32688800541 200 144 185.67311199459 144 168 C 144 150.32688800541 158.32688800541 136 176 136 C 193.67311199459 136 208 150.32688800541 208 168 Z"/>
    <path fill="none" stroke="#000000" stroke-width="16" stroke-linecap="round" stroke-linejoin="round" d="M 128 224 C 139.33126291999 208.89164944001 157.11456180002 200 176 200 C 194.88543819998 200 212.66873708001 208.89164944001 224 224"/>
    <path fill="none" stroke="#000000" stroke-width="16" stroke-linecap="round" stroke-linejoin="round" d="M 208 64 C 208 81.67311199459 193.67311199459 96 176 96 C 158.32688800541 96 144 81.67311199459 144 64 C 144 46.32688800541 158.32688800541 32 176 32 C 193.67311199459 32 208 46.32688800541 208 64 Z"/>
    <path fill="none" stroke="#000000" stroke-width="16" stroke-linecap="round" stroke-linejoin="round" d="M 128 120 C 139.33126291999 104.89164944001 157.11456180002 96 176 96 C 194.88543819998 96 212.66873708001 104.89164944001 224 120"/>
</svg>
