<svg width="306" height="344.35" viewBox="0 0 306 344.35" xmlns="http://www.w3.org/2000/svg" xmlns:usvg="https://github.com/RazrFalcon/resvg" usvg:version="0.13.1">
    <defs/>
    <g enable-background="new 0 0 306 344.35">
        <path fill="#00599c" stroke="none" d="M 302.107 258.262 C 304.508 254.103 306 249.417 306 245.209 L 306 99.14 C 306 94.932 304.51 90.247 302.108 86.088 L 153 172.175 L 302.107 258.262 Z"/>
        <path fill="#004482" stroke="none" d="M 166.25 341.193 L 292.75 268.159 C 296.394 266.055 299.706 262.422 302.107 258.262 L 153 172.175 L 3.893 258.263 C 6.294 262.422 9.607 266.056 13.25 268.159 L 139.75 341.193 C 147.037 345.401 158.963 345.401 166.25 341.193 Z"/>
        <path fill="#659ad2" stroke="none" d="M 302.108 86.087 C 299.706 81.927 296.393 78.294 292.75 76.19 L 166.25 3.156 C 158.963 -1.052 147.037 -1.052 139.75 3.156 L 13.25 76.19 C 5.962 80.397 0 90.725 0 99.14 L 0 245.209 C 0 249.417 1.491 254.103 3.893 258.262 L 153 172.175 L 302.108 86.087 Z"/>
        <path fill="#ffffff" stroke="none" d="M 153 274.175 C 96.757 274.175 51 228.418 51 172.175 C 51 115.932 96.757 70.175 153 70.175 C 189.292 70.175 223.139 89.705 241.331 121.143 L 197.188 146.687 C 188.083 130.951 171.15 121.175 153 121.175 C 124.878 121.175 102 144.053 102 172.175 C 102 200.296 124.878 223.175 153 223.175 C 171.152 223.175 188.085 213.399 197.191 197.66 L 241.334 223.203 C 223.142 254.644 189.294 274.175 153 274.175 Z"/>
        <path fill="#ffffff" stroke="none" d="M 255 166.508 L 243.666 166.508 L 243.666 155.175 L 232.334 155.175 L 232.334 166.508 L 221 166.508 L 221 177.841 L 232.334 177.841 L 232.334 189.175 L 243.666 189.175 L 243.666 177.841 L 255 177.841 Z"/>
        <path fill="#ffffff" stroke="none" d="M 297.5 166.508 L 286.166 166.508 L 286.166 155.175 L 274.834 155.175 L 274.834 166.508 L 263.5 166.508 L 263.5 177.841 L 274.834 177.841 L 274.834 189.175 L 286.166 189.175 L 286.166 177.841 L 297.5 177.841 Z"/>
    </g>
</svg>
