<svg width="256" height="288" viewBox="0 0 256 288" xmlns="http://www.w3.org/2000/svg" xmlns:usvg="https://github.com/RazrFalcon/resvg" usvg:version="0.13.1">
    <defs/>
    <path fill="#a179dc" stroke="none" d="M 255.569 84.452376 C 255.567 79.622376 254.534 75.354376 252.445 71.691376 C 250.393 68.089376 247.32 65.070376 243.198 62.683376 C 209.173 43.064376 175.115 23.505376 141.101 3.86637605 C 131.931 -1.42762395 123.04 -1.23462395 113.938 4.13537605 C 100.395 12.122376 32.59 50.969376 12.385 62.672376 C 4.064 67.489376 0.015 74.861376 0.013 84.443376 C 0 123.898376 0.013 163.352376 0 202.808376 C 0 207.532376 0.991 211.717376 2.988 215.325376 C 5.041 219.036376 8.157 222.138376 12.374 224.579376 C 32.58 236.282376 100.394 275.126376 113.934 283.115376 C 123.04 288.488376 131.931 288.680376 141.104 283.384376 C 175.119 263.744376 209.179 244.186376 243.209 224.567376 C 247.426 222.127376 250.542 219.023376 252.595 215.315376 C 254.589 211.707376 255.582 207.522376 255.582 202.797376 C 255.582 202.797376 255.582 123.908376 255.569 84.452376"/>
    <path fill="#280068" stroke="none" d="M 128.182 143.241376 L 2.988 215.325376 C 5.041 219.036376 8.157 222.138376 12.374 224.579376 C 32.58 236.282376 100.394 275.126376 113.934 283.115376 C 123.04 288.488376 131.931 288.680376 141.104 283.384376 C 175.119 263.744376 209.179 244.186376 243.209 224.567376 C 247.426 222.127376 250.542 219.023376 252.595 215.315376 L 128.182 143.241376"/>
    <path fill="#390091" stroke="none" d="M 255.569 84.452376 C 255.567 79.622376 254.534 75.354376 252.445 71.691376 L 128.182 143.241376 L 252.595 215.315376 C 254.589 211.707376 255.58 207.522376 255.582 202.797376 C 255.582 202.797376 255.582 123.908376 255.569 84.452376"/>
    <path fill="#ffffff" stroke="none" d="M 201.892326 116.294008 L 201.892326 129.767692 L 215.36601 129.767692 L 215.36601 116.294008 L 222.102852 116.294008 L 222.102852 129.767692 L 235.576537 129.767692 L 235.576537 136.504534 L 222.102852 136.504534 L 222.102852 149.978218 L 235.576537 149.978218 L 235.576537 156.71506 L 222.102852 156.71506 L 222.102852 170.188744 L 215.36601 170.188744 L 215.36601 156.71506 L 201.892326 156.71506 L 201.892326 170.188744 L 195.155484 170.188744 L 195.155484 156.71506 L 181.6818 156.71506 L 181.6818 149.978218 L 195.155484 149.978218 L 195.155484 136.504534 L 181.6818 136.504534 L 181.6818 129.767692 L 195.155484 129.767692 L 195.155484 116.294008 L 201.892326 116.294008 Z M 215.36601 136.504534 L 201.892326 136.504534 L 201.892326 149.978218 L 215.36601 149.978218 L 215.36601 136.504534 Z"/>
    <path fill="#ffffff" stroke="none" d="M 128.456752 48.625876 C 163.600523 48.625876 194.283885 67.7121741 210.718562 96.0819435 L 210.558192 95.808876 L 169.209615 119.617159 C 161.062959 105.823554 146.128136 96.5150717 128.996383 96.3233722 L 128.456752 96.3203544 C 102.331178 96.3203544 81.1506705 117.499743 81.1506705 143.625316 C 81.1506705 152.168931 83.4284453 160.17752 87.3896469 167.094792 C 95.543745 181.330045 110.872554 190.931398 128.456752 190.931398 C 146.149522 190.931398 161.565636 181.208041 169.67832 166.820563 L 169.481192 167.165876 L 210.767678 191.083913 C 194.51328 219.21347 164.25027 238.240861 129.514977 238.620102 L 128.456752 238.625876 C 93.2021701 238.625876 62.4315028 219.422052 46.0382398 190.902296 C 38.0352471 176.979327 33.4561922 160.837907 33.4561922 143.625316 C 33.4561922 91.1592636 75.9884604 48.625876 128.456752 48.625876 Z"/>
</svg>
