<svg width="110.5" height="110.5" viewBox="188 251.8 110.5 110.5" xmlns="http://www.w3.org/2000/svg" xmlns:usvg="https://github.com/RazrFalcon/resvg" usvg:version="0.13.1">
    <defs/>
    <g enable-background="new 188 251.8 415.8 110.5">
        <path id="path2" fill="#00c4b3" stroke="none" d="M 217.7 281.7 L 210.6 274.6 L 210.6 325.8 L 210.7 328.2 C 210.7 329.3 210.9 330.6 211.3 331.9 L 267.5 351.7 L 281.5 345.5 L 281.5 345.5 Z"/>
        <path id="path4" fill="#22d3c5" stroke="none" d="M 211.3 331.9 L 211.3 331.9 C 211.3 331.9 211.3 331.9 211.3 331.9 C 211.3 331.9 211.3 331.9 211.3 331.9 Z M 281.5 345.5 L 267.5 351.7 L 211.4 331.9 C 212.5 336 214.8 340.6 217.4 343.2 L 235.7 361.4 L 276.5 361.5 Z"/>
        <path id="path6" fill="#0075c9" stroke="none" d="M 210.8 274.6 L 189 307.6 C 187.2 309.5 188.1 313.5 191 316.5 L 203.6 329.2 L 211.5 332 C 211.2 330.7 210.9 329.4 210.9 328.3 L 210.8 325.9 Z"/>
        <path id="path8" fill="#0075c9" stroke="none" d="M 267.9 275.2 C 266.6 274.9 265.3 274.7 264.2 274.6 L 261.7 274.5 L 210.6 274.5 L 281.5 345.4 L 281.5 345.4 L 287.7 331.4 Z"/>
        <path id="path10" fill="#00a8e1" stroke="none" d="M 267.8 275.2 C 267.9 275.2 267.9 275.2 267.8 275.2 L 267.8 275.2 C 267.9 275.2 267.9 275.2 267.8 275.2 Z M 279.2 281.2 C 276.6 278.6 272.1 276.2 267.9 275.2 L 287.7 331.4 L 281.5 345.4 L 281.5 345.4 L 296.7 340.5 L 296.7 298.8 Z"/>
        <path id="path12" fill="#00c4b3" stroke="none" d="M 265.1 267.4 L 252.4 254.8 C 249.5 251.9 245.5 251 243.5 252.8 L 210.5 274.6 L 261.6 274.6 L 264.1 274.7 C 265.2 274.7 266.5 274.9 267.8 275.3 Z"/>
    </g>
</svg>
