<svg width="64" height="36.333" viewBox="0 0 32 18.1665" xmlns="http://www.w3.org/2000/svg" xmlns:usvg="https://github.com/RazrFalcon/resvg" usvg:version="0.13.1">
    <defs>
        <clipPath id="A">
            <path id="path157" fill="#000000" stroke="none" d="M 76 2 L 76 48 L 54 48 L 54 71 L 35.58 71 L 35.374 73 C 34.224 85.53 36.41 97.088 41.437 106.97 L 43.125 110 C 44.125 111.817 45.325 113.523 46.563 115.188 C 47.801 116.853 48.249 117.771 49.033 118.876 C 62.32 133.8 82.13 141 105 141 C 155.648 141 198.633 118.562 217.656 68.156 C 231.153 69.54 244.1 66.08 250 54.563 C 240.6 49.139 228.522 50.878 221.563 54.376 L 240 2 L 168 48 L 145 48 L 145 2 Z"/>
        </clipPath>
    </defs>
    <path id="path162" fill="#394d54" stroke="none" transform="matrix(0.679423 0 0 0.679423 -2.0858286 8.1489995)" d="M 30.305 -3.553 L 34.527 -3.553 L 34.527 0.763 L 36.662 0.763 C 37.66012462192 0.7581998763 38.65090809868 0.5920562258 39.596 0.271 C 40.056 0.115 40.57 -0.101 41.022 -0.373 C 40.426 -1.151 40.122 -2.133 40.022 -3.103 C 39.9 -4.42 40.166 -6.135 41.058 -7.166 L 41.502 -7.679 L 42.032 -7.254 C 43.364 -6.184 44.484 -4.689 44.682 -2.984 C 46.285 -3.456 48.168 -3.344 49.582 -2.528 L 50.162 -2.193 L 49.857 -1.597 C 48.67 0.733 46.17 1.456 43.727 1.328 C 40.071 10.433 32.112 14.744 22.462 14.744 C 17.476 14.744 12.902 12.88 10.298 8.457 C 10.145 8.182 10.015 7.895 9.876 7.613 C 8.996 5.666 8.703 3.533 8.901 1.413 L 8.961 0.775 L 12.561 0.775 L 12.561 -3.55 L 16.783 -3.55 L 16.783 -7.772 L 25.228 -7.772 L 25.228 -11.994 L 30.295 -11.994 L 30.295 -3.549"/>
    <g id="g189" clip-path="url(#A)" transform="matrix(0.12546157175699998 0 0 0.12546157175699998 0.0003206976559999575 -0.0026252524719989623)">
        <path id="path164" fill="#00acd3" stroke="none" transform="matrix(1 0 0 1 0 -22.866)" d="M 123.86 3.8 L 143.678 3.8 L 143.678 23.617 L 123.86 23.617 Z"/>
        <path id="path166" fill="#20c2ef" stroke="none" transform="matrix(1 0 0 1 0 -22.866)" d="M 123.86 26.676 L 143.678 26.676 L 143.678 46.494 L 123.86 46.494 Z"/>
        <path id="D" fill="#000000" stroke="#394d54" stroke-width="1.56" transform="matrix(1 0 0 1 0 -22.866)" d="M 126.292 21.977 L 126.292 5.46 M 129.264 21.976 L 129.264 5.46 M 132.266 21.976 L 132.266 5.46 M 135.269 21.976 L 135.269 5.46 M 138.272 21.976 L 138.272 5.46 M 141.242 21.976 L 141.242 5.46"/>
        <path fill="#000000" stroke="#394d54" stroke-width="1.56" transform="matrix(1 0 0 1 0 -0.0000010000000010279564)" d="M 126.292 21.977 L 126.292 5.46 M 129.264 21.976 L 129.264 5.46 M 132.266 21.976 L 132.266 5.46 M 135.269 21.976 L 135.269 5.46 M 138.272 21.976 L 138.272 5.46 M 141.242 21.976 L 141.242 5.46"/>
        <path fill="#00acd3" stroke="none" transform="matrix(1 0 0 -1 22.866 27.438651)" d="M 123.86 3.8 L 143.678 3.8 L 143.678 23.617 L 123.86 23.617 Z"/>
        <path fill="#20c2ef" stroke="none" transform="matrix(1 0 0 -1 22.866 27.438651)" d="M 123.86 26.676 L 143.678 26.676 L 143.678 46.494 L 123.86 46.494 Z"/>
        <path fill="#000000" stroke="#394d54" stroke-width="1.56" transform="matrix(1 0 0 -1 22.866 27.438651)" d="M 126.292 21.977 L 126.292 5.46 M 129.264 21.976 L 129.264 5.46 M 132.266 21.976 L 132.266 5.46 M 135.269 21.976 L 135.269 5.46 M 138.272 21.976 L 138.272 5.46 M 141.242 21.976 L 141.242 5.46"/>
        <path fill="#000000" stroke="#394d54" stroke-width="1.56" transform="matrix(1 0 0 -1 22.866 4.5726520000000015)" d="M 126.292 21.977 L 126.292 5.46 M 129.264 21.976 L 129.264 5.46 M 132.266 21.976 L 132.266 5.46 M 135.269 21.976 L 135.269 5.46 M 138.272 21.976 L 138.272 5.46 M 141.242 21.976 L 141.242 5.46"/>
        <path fill="#00acd3" stroke="none" transform="matrix(1 0 0 1 -91.463997 22.865997999999998)" d="M 123.86 3.8 L 143.678 3.8 L 143.678 23.617 L 123.86 23.617 Z"/>
        <path fill="#20c2ef" stroke="none" transform="matrix(1 0 0 1 -91.463997 22.865997999999998)" d="M 123.86 26.676 L 143.678 26.676 L 143.678 46.494 L 123.86 46.494 Z"/>
        <path fill="#000000" stroke="#394d54" stroke-width="1.56" transform="matrix(1 0 0 1 -91.463997 22.865997999999998)" d="M 126.292 21.977 L 126.292 5.46 M 129.264 21.976 L 129.264 5.46 M 132.266 21.976 L 132.266 5.46 M 135.269 21.976 L 135.269 5.46 M 138.272 21.976 L 138.272 5.46 M 141.242 21.976 L 141.242 5.46"/>
        <path fill="#000000" stroke="#394d54" stroke-width="1.56" transform="matrix(1 0 0 1 -91.463997 45.73199699999999)" d="M 126.292 21.977 L 126.292 5.46 M 129.264 21.976 L 129.264 5.46 M 132.266 21.976 L 132.266 5.46 M 135.269 21.976 L 135.269 5.46 M 138.272 21.976 L 138.272 5.46 M 141.242 21.976 L 141.242 5.46"/>
        <path fill="#00acd3" stroke="none" transform="matrix(1 0 0 -1 -68.597997 73.170649)" d="M 123.86 3.8 L 143.678 3.8 L 143.678 23.617 L 123.86 23.617 Z"/>
        <path fill="#20c2ef" stroke="none" transform="matrix(1 0 0 -1 -68.597997 73.170649)" d="M 123.86 26.676 L 143.678 26.676 L 143.678 46.494 L 123.86 46.494 Z"/>
        <path fill="#000000" stroke="#394d54" stroke-width="1.56" transform="matrix(1 0 0 -1 -68.597997 73.170649)" d="M 126.292 21.977 L 126.292 5.46 M 129.264 21.976 L 129.264 5.46 M 132.266 21.976 L 132.266 5.46 M 135.269 21.976 L 135.269 5.46 M 138.272 21.976 L 138.272 5.46 M 141.242 21.976 L 141.242 5.46"/>
        <path fill="#000000" stroke="#394d54" stroke-width="1.56" transform="matrix(1 0 0 -1 -68.597997 50.304649999999995)" d="M 126.292 21.977 L 126.292 5.46 M 129.264 21.976 L 129.264 5.46 M 132.266 21.976 L 132.266 5.46 M 135.269 21.976 L 135.269 5.46 M 138.272 21.976 L 138.272 5.46 M 141.242 21.976 L 141.242 5.46"/>
        <path fill="#00acd3" stroke="none" transform="matrix(1 0 0 1 -45.731998 22.865997999999998)" d="M 123.86 3.8 L 143.678 3.8 L 143.678 23.617 L 123.86 23.617 Z"/>
        <path fill="#20c2ef" stroke="none" transform="matrix(1 0 0 1 -45.731998 22.865997999999998)" d="M 123.86 26.676 L 143.678 26.676 L 143.678 46.494 L 123.86 46.494 Z"/>
        <path fill="#000000" stroke="#394d54" stroke-width="1.56" transform="matrix(1 0 0 1 -45.731998 22.865997999999998)" d="M 126.292 21.977 L 126.292 5.46 M 129.264 21.976 L 129.264 5.46 M 132.266 21.976 L 132.266 5.46 M 135.269 21.976 L 135.269 5.46 M 138.272 21.976 L 138.272 5.46 M 141.242 21.976 L 141.242 5.46"/>
        <path fill="#000000" stroke="#394d54" stroke-width="1.56" transform="matrix(1 0 0 1 -45.731998 45.73199699999999)" d="M 126.292 21.977 L 126.292 5.46 M 129.264 21.976 L 129.264 5.46 M 132.266 21.976 L 132.266 5.46 M 135.269 21.976 L 135.269 5.46 M 138.272 21.976 L 138.272 5.46 M 141.242 21.976 L 141.242 5.46"/>
        <path fill="#00acd3" stroke="none" transform="matrix(1 0 0 -1 -22.865997999999998 73.170649)" d="M 123.86 3.8 L 143.678 3.8 L 143.678 23.617 L 123.86 23.617 Z"/>
        <path fill="#20c2ef" stroke="none" transform="matrix(1 0 0 -1 -22.865997999999998 73.170649)" d="M 123.86 26.676 L 143.678 26.676 L 143.678 46.494 L 123.86 46.494 Z"/>
        <path fill="#000000" stroke="#394d54" stroke-width="1.56" transform="matrix(1 0 0 -1 -22.865997999999998 73.170649)" d="M 126.292 21.977 L 126.292 5.46 M 129.264 21.976 L 129.264 5.46 M 132.266 21.976 L 132.266 5.46 M 135.269 21.976 L 135.269 5.46 M 138.272 21.976 L 138.272 5.46 M 141.242 21.976 L 141.242 5.46"/>
        <path fill="#000000" stroke="#394d54" stroke-width="1.56" transform="matrix(1 0 0 -1 -22.865997999999998 50.304649999999995)" d="M 126.292 21.977 L 126.292 5.46 M 129.264 21.976 L 129.264 5.46 M 132.266 21.976 L 132.266 5.46 M 135.269 21.976 L 135.269 5.46 M 138.272 21.976 L 138.272 5.46 M 141.242 21.976 L 141.242 5.46"/>
        <path fill="#00acd3" stroke="none" transform="matrix(1 0 0 1 0 22.865997999999998)" d="M 123.86 3.8 L 143.678 3.8 L 143.678 23.617 L 123.86 23.617 Z"/>
        <path fill="#20c2ef" stroke="none" transform="matrix(1 0 0 1 0 22.865997999999998)" d="M 123.86 26.676 L 143.678 26.676 L 143.678 46.494 L 123.86 46.494 Z"/>
        <path fill="#000000" stroke="#394d54" stroke-width="1.56" transform="matrix(1 0 0 1 0 22.865997999999998)" d="M 126.292 21.977 L 126.292 5.46 M 129.264 21.976 L 129.264 5.46 M 132.266 21.976 L 132.266 5.46 M 135.269 21.976 L 135.269 5.46 M 138.272 21.976 L 138.272 5.46 M 141.242 21.976 L 141.242 5.46"/>
        <path fill="#000000" stroke="#394d54" stroke-width="1.56" transform="matrix(1 0 0 1 0 45.73199699999999)" d="M 126.292 21.977 L 126.292 5.46 M 129.264 21.976 L 129.264 5.46 M 132.266 21.976 L 132.266 5.46 M 135.269 21.976 L 135.269 5.46 M 138.272 21.976 L 138.272 5.46 M 141.242 21.976 L 141.242 5.46"/>
        <path fill="#00acd3" stroke="none" transform="matrix(1 0 0 -1 22.866 73.170649)" d="M 123.86 3.8 L 143.678 3.8 L 143.678 23.617 L 123.86 23.617 Z"/>
        <path fill="#20c2ef" stroke="none" transform="matrix(1 0 0 -1 22.866 73.170649)" d="M 123.86 26.676 L 143.678 26.676 L 143.678 46.494 L 123.86 46.494 Z"/>
        <path fill="#000000" stroke="#394d54" stroke-width="1.56" transform="matrix(1 0 0 -1 22.866 73.170649)" d="M 126.292 21.977 L 126.292 5.46 M 129.264 21.976 L 129.264 5.46 M 132.266 21.976 L 132.266 5.46 M 135.269 21.976 L 135.269 5.46 M 138.272 21.976 L 138.272 5.46 M 141.242 21.976 L 141.242 5.46"/>
        <path fill="#000000" stroke="#394d54" stroke-width="1.56" transform="matrix(1 0 0 -1 22.866 50.304649999999995)" d="M 126.292 21.977 L 126.292 5.46 M 129.264 21.976 L 129.264 5.46 M 132.266 21.976 L 132.266 5.46 M 135.269 21.976 L 135.269 5.46 M 138.272 21.976 L 138.272 5.46 M 141.242 21.976 L 141.242 5.46"/>
        <path id="path181" fill="#17b5eb" stroke="none" d="M 221.57 54.38 C 223.103 42.465 214.186 33.105 208.656 28.662 C 202.283 36.03 201.293 55.34 211.291 63.469 C 205.711 68.425 193.954 72.917 181.915 72.917 L 34 72.917 C 32.83 85.484 34 146 34 146 L 251 146 L 250.013 54.576 C 240.613 49.152 228.529 50.882 221.57 54.379"/>
        <path id="path183" fill="#000000" fill-opacity="0.17" stroke="none" d="M 34 89 L 34 146 L 251 146 L 251 89"/>
        <path id="path185" fill="#d4edf1" stroke="none" d="M 111.237 140.9 C 97.697 134.475 90.265 125.74 86.13 116.206 L 45 118 L 66 146 L 111.237 140.9"/>
        <path id="path187" fill="#000000" fill-opacity="0.085" stroke="none" d="M 222.5 53.938 L 222.5 53.968 C 201.64 80.868 171.717 104.348 139.594 116.688 C 110.939 127.696 85.956 127.748 68.719 118.908 C 66.863 117.86 65.043 116.696 63.219 115.596 C 50.582 106.764 43.465 92.156 44.063 72.909 L 34 72.909 L 34 146 L 251 146 L 251 50 L 226 50 Z"/>
    </g>
    <path id="path191" fill="none" stroke="#394d54" stroke-width="0.628" stroke-linecap="round" transform="matrix(0.679423 0 0 0.679423 -2.0858286 8.1489995)" d="M 11.496 9.613 C 14.112 9.756 16.903 9.783 19.338 9.019"/>
    <path id="path193" fill="#d4edf1" stroke="none" transform="matrix(0.679423 0 0 0.679423 -2.0858286 8.1489995)" d="M 21.937 7.753 C 21.93644876078 8.31002682204 21.48502682204 8.76144876078 20.928 8.762 C 20.37058269371 8.76200027322 19.91855189832 8.31041703307 19.918 7.753 C 19.918 7.19519240267 20.37019240267 6.743 20.928 6.743 C 21.48541703307 6.74355189832 21.93700027322 7.19558269371 21.937 7.753 Z"/>
    <path id="path195" fill="#394d54" stroke="none" transform="matrix(0.679423 0 0 0.679423 -2.0858286 8.1489995)" d="M 21.2 7.08 C 21.112 7.13 21.052 7.226 21.052 7.336 C 21.052 7.499 21.184 7.631 21.347 7.631 C 21.459 7.631 21.547 7.569 21.607 7.477 C 21.64318883937 7.56487310445 21.66187171458 7.65896685776 21.662 7.754 C 21.662 8.154 21.338 8.477 20.939 8.477 C 20.54 8.477 20.216 8.153 20.216 7.754 C 20.216 7.355 20.54 7.031 20.939 7.031 C 21.02862182511 7.03088477564 21.11747744303 7.04750281105 21.201 7.08 Z M 3.07 4.65 L 50.034 4.65 C 49.011 4.39 46.799 4.05 47.164 2.7 C 45.304 4.852 40.82 4.2 39.689 3.148 C 38.429 4.976 31.092 4.281 30.581 2.848 C 29.001 4.702 24.106 4.702 22.526 2.848 C 22.014 4.272 14.678 4.968 13.426 3.148 C 12.284 4.2 7.8 4.853 5.94 2.7 C 6.305 4.04 4.092 4.4 3.07 4.65"/>
</svg>
