<svg width="64" height="64" viewBox="0 0 32 32" xmlns="http://www.w3.org/2000/svg" xmlns:usvg="https://github.com/RazrFalcon/resvg" usvg:version="0.13.1">
    <defs/>
    <path fill="#000000" stroke="none" d="M 32 24.795 C 30.836 25.091 30.116 24.808 29.47 23.838 L 24.876 17.482 L 24.212 16.602 L 18.847 23.859 C 18.234 24.732 17.591 25.112 16.447 24.803 L 23.317 15.581 L 16.921 7.251 C 18.021 7.037 18.781 7.146 19.456 8.131 L 24.221 14.566 L 29.021 8.166 C 29.636 7.293 30.297 6.961 31.401 7.283 L 28.921 10.571 L 25.561 14.946 C 25.161 15.446 25.216 15.788 25.584 16.271 L 32 24.795 Z M 0.008 15.427 L 0.57 12.663 C 2.1 7.193 8.37 4.92 12.694 8.3 C 15.221 10.288 15.849 13.1 15.724 16.25 L 1.48 16.25 C 1.266 21.92 5.347 25.342 10.55 23.596 C 12.375 22.983 13.45 21.554 13.988 19.766 C 14.261 18.87 14.713 18.73 15.555 18.986 C 15.125 21.222 14.155 23.09 12.105 24.259 C 9.042 26.009 4.67 25.443 2.37 23.011 C 1 21.6 0.434 19.812 0.18 17.9 C 0.14 17.584 0.06 17.283 0 16.98 C 0.00533333333 16.46266666667 0.008 15.94533333333 0.008 15.428 Z M 1.506 15.047 L 14.378 15.047 C 14.294 10.947 11.741 8.035 8.252 8.01 C 4.422 7.98 1.672 10.823 1.506 15.047 Z"/>
</svg>
