<svg width="64" height="64" viewBox="0 0 32 32" xmlns="http://www.w3.org/2000/svg" xmlns:usvg="https://github.com/RazrFalcon/resvg" usvg:version="0.13.1">
    <defs/>
    <path fill="#f03c2e" stroke="none" d="M 31.396 14.575 L 17.425 0.604 C 17.03864582539 0.21745476791 16.51452242834 0.00027984948 15.968 0.00027984948 C 15.42147757166 0.00027984948 14.89735417461 0.21745476791 14.511 0.604 L 11.611 3.504 L 15.291 7.184 C 16.147 6.884 17.127 7.089 17.809 7.771 C 18.47140693644 8.4345968628 18.69698421428 9.4180516731 18.39 10.304 L 21.937 13.851 C 22.795 13.555 23.785 13.746 24.47 14.433 C 25.42766177912 15.39093789465 25.42743793237 16.94383825861 24.4695000243 17.90150002431 C 23.51156211623 18.85916179 21.95866175227 18.85893792149 21.001 17.901 C 20.281 17.181 20.103 16.121 20.467 15.234 L 17.159 11.926 L 17.159 20.631 C 17.39913048482 20.74983691507 17.61859676111 20.9065020723 17.809 21.095 C 18.76666177912 22.05266175227 18.76666179 23.60533825861 17.80900002431 24.56300002431 C 16.85133825861 25.52066179 15.29866175227 25.52066177912 14.341 24.563 C 13.88056341315 24.1034073424 13.62182177014 23.47955919134 13.62182177014 22.829 C 13.62182177014 22.17844080866 13.88056341315 21.5545926576 14.341 21.095 C 14.578 20.859 14.841 20.68 15.144 20.56 L 15.144 11.774 C 14.852 11.654 14.578 11.477 14.341 11.239 C 13.63671314809 10.53557180649 13.42802933697 9.47594813677 13.813 8.558 L 10.183 4.93 L 0.603 14.5 C 0.21614867362 14.88639465082 -0.00122056959 15.41073243065 -0.00122056959 15.9575 C -0.00122056959 16.50426756935 0.21614867362 17.02860534918 0.603 17.415 L 14.575 31.385 C 14.96135417461 31.77154523209 15.48547757166 31.98872015052 16.032 31.98872015052 C 16.57852242834 31.98872015052 17.10264582539 31.77154523209 17.489 31.385 L 31.396 17.5 C 31.78285132638 17.11360534918 32.00022056959 16.58926756935 32.00022056959 16.0425 C 32.00022056959 15.49573243065 31.78285132638 14.97139465082 31.396 14.585"/>
</svg>
