<svg width="1839" height="2500" viewBox="-10.858 -38.49690284 271.141 389.92490284" xmlns="http://www.w3.org/2000/svg" xmlns:usvg="https://github.com/RazrFalcon/resvg" usvg:version="0.13.1">
    <defs/>
    <path fill="#f6d2a2" stroke="none" d="M 3.686 188.165 C 4.184 198.425 14.444 193.644 19.026 190.456 C 23.409 187.368 24.704 189.958 25.102 183.981 C 25.401 179.997 25.799 176.112 25.6 172.128 C 18.926 171.53 11.754 173.124 6.275 177.108 C 3.387 179.1 -1.793 185.675 3.685 188.165 M 208.187 314.272 C 216.056 319.153 230.5 333.896 218.646 341.068 C 207.29 351.428 200.916 329.612 190.954 326.624 C 195.237 320.747 200.616 315.368 208.187 314.272 Z M 67.337 330.907 C 58.073 332.302 52.893 340.669 45.124 344.953 C 37.852 349.236 35.063 343.558 34.465 342.363 C 33.37 341.865 33.469 342.861 31.676 341.068 C 24.903 330.409 38.649 322.64 45.821 317.36 C 55.782 315.368 62.058 324.034 67.337 330.907 Z M 251.916 186.87 C 251.418 197.13 241.158 192.349 236.576 189.161 C 232.193 186.073 230.898 188.663 230.5 182.686 C 230.2 178.702 229.802 174.817 230.002 170.833 C 236.675 170.235 243.847 171.829 249.326 175.813 C 252.116 177.805 257.395 184.38 251.916 186.87"/>
    <path fill="#69d7e2" stroke="none" d="M 224.722 61.759 C 260.283 49.208 232.492 0.499 201.512 22.014 C 181.192 4.582 153.202 1.394 123.816 1.394 C 95.03 3.687 67.636 8.966 48.511 25.7 C 17.63 5.777 -10.858 53.59 25.4 65.644 C 15.24 105.089 26.794 145.332 25.2 185.475 C 23.706 221.535 14.243 269.845 34.265 302.219 C 51.299 329.911 87.955 339.773 118.138 340.869 C 156.687 342.263 203.404 332.8 222.131 295.446 C 240.061 259.885 235.081 215.558 232.79 177.208 C 230.499 138.459 234.782 99.113 224.721 61.758 Z"/>
    <path fill="#000000" stroke="none" d="M 254.605 180.794 C 253.609 178.702 251.717 176.311 249.924 175.016 C 245.342 171.729 239.464 169.936 233.388 169.737 C 233.189 163.561 232.99 156.787 232.99 148.221 L 232.99 140.451 C 232.89 115.947 232.591 105.189 231.197 91.741 C 230.101 81.183 228.407 71.421 226.017 62.257 C 234.086 59.169 239.365 54.089 241.457 47.514 C 243.449 41.438 242.453 34.565 239.067 28.489 C 235.58 22.512 230.002 18.029 223.527 16.237 C 216.554 14.344 208.984 15.739 201.712 20.619 C 195.237 15.141 187.767 10.957 179.399 7.769 C 164.557 2.292 147.325 0.2 123.916 0.2 L 123.916 1.196 L 123.816 0.2 C 98.814 2.192 80.286 6.077 64.946 13.548 C 58.77 16.536 53.292 20.122 48.511 24.306 C 41.139 19.724 33.469 18.628 26.397 20.82 C 19.823 22.812 14.145 27.494 10.758 33.57 C 7.371 39.646 6.574 46.619 8.865 52.596 C 11.156 58.572 16.435 63.254 24.305 66.143 C 21.815 76.203 20.52 86.862 20.321 98.616 C 20.121 110.071 20.619 119.236 22.412 139.954 C 23.707 155.394 24.205 162.466 24.405 171.033 C 17.631 170.734 10.858 172.527 5.777 176.213 C 3.984 177.508 1.992 179.799 1.096 181.99 C -0.199 184.78 0.299 187.27 2.889 188.764 C 3.287 193.545 5.977 195.736 10.061 195.338 C 13.049 195.039 16.635 193.445 19.723 191.254 C 20.37537090871 190.78165728014 21.07675538486 190.38100983798 21.815 190.059 C 22.114 189.959 22.313 189.859 22.612 189.759 C 22.612 189.759 23.209 189.561 23.409 189.461 C 23.707 189.361 24.006 189.261 24.205 189.062 C 24.006 193.744 23.608 198.625 22.711 209.782 C 21.715 222.332 21.217 229.206 21.018 236.876 C 20.121 265.364 23.508 286.083 33.668 302.519 C 36.856 307.699 40.741 312.281 45.323 316.465 C 44.426 317.062 40.641 319.852 39.446 320.748 C 35.262 323.936 32.374 326.625 30.68 329.613 C 28.489 333.498 28.489 337.383 30.979 341.467 L 31.079 341.567 L 31.179 341.667 C 32.274 342.762 32.872 343.061 33.669 343.061 L 33.966 343.061 C 34.066 343.261 34.166 343.36 34.266 343.559 C 34.564 344.057 34.863 344.455 35.162 344.854 C 37.652 347.743 41.138 348.44 45.82 345.651 C 48.31 344.356 50.103 342.861 53.888 339.674 L 54.088 339.474 C 60.164 334.295 63.152 332.403 67.635 331.705 L 69.229 331.406 C 69.826 331.706 70.424 331.905 71.121 332.203 C 85.266 337.881 101.701 340.969 118.337 341.567 C 139.853 342.364 160.572 339.674 178.103 333.299 C 182.785 331.606 187.168 329.613 191.352 327.422 C 193.942 328.418 196.132 330.51 200.317 335.391 C 200.516 335.591 200.516 335.591 200.615 335.789 C 200.815 335.989 200.815 336.089 200.915 336.188 C 201.113 336.487 201.412 336.686 201.611 336.985 C 204.899 340.869 207.091 342.762 209.581 343.858 C 212.867 345.252 216.055 344.555 219.342 341.567 C 225.12 337.981 225.518 332.403 221.732 326.027 C 219.043 321.545 214.362 316.863 209.979 313.875 C 215.159 308.795 219.641 302.719 223.127 295.845 C 232.69 276.72 236.376 254.407 236.177 225.719 C 236.077 215.559 235.678 206.694 234.583 189.759 L 234.583 189.262 C 235.081 189.461 235.579 189.76 236.077 190.158 C 239.165 192.25 242.751 193.943 245.739 194.242 C 249.823 194.641 252.513 192.449 252.911 187.668 C 255.401 186.074 255.899 183.584 254.604 180.795 Z M 222.93 18.328 C 228.907 19.922 234.087 24.106 237.274 29.684 C 240.462 35.262 241.358 41.538 239.565 47.116 C 237.673 52.993 232.891 57.675 225.42 60.464 C 223.93040462465 55.13091603926 222.16842631784 49.87769069907 220.141 44.725 C 223.03 42.235 224.424 39.147 222.133 34.765 C 219.843 30.381 215.858 29.883 211.773 31.178 C 209.183 27.791 206.295 24.803 203.307 22.014 C 209.881 17.83 216.655 16.635 222.93 18.328 Z M 10.56 51.997 C 8.468 46.617 9.165 40.243 12.353 34.665 C 15.54 29.086 20.72 24.704 26.896 22.911 C 33.271 21.018 40.144 21.914 46.918 25.899 C 43.00092523024 29.41972345338 39.52250452304 33.39976197298 36.558 37.753 C 31.378 35.063 26.099 34.565 23.111 40.043 C 20.023 45.921 23.609 49.606 28.689 52.395 C 27.992 54.089 27.294 55.882 26.697 57.675 C 25.999 59.866 25.302 62.157 24.705 64.448 C 17.433 61.659 12.652 57.376 10.56 51.997 Z M 22.613 187.767 C 22.513 187.767 21.915 187.966 21.915 188.065 C 21.617 188.165 21.318 188.265 21.019 188.464 C 20.222 188.763 19.425 189.261 18.629 189.858 C 15.839 191.851 12.452 193.345 9.862 193.544 C 6.874 193.843 5.181 192.548 4.882 188.962 C 6.974 188.265 7.87 187.767 8.667 186.572 L 7.073 185.376 C 6.476 186.173 5.878 186.472 4.085 187.069 C 3.985 187.069 3.985 187.069 3.885 187.169 C 2.292 186.272 1.993 184.878 2.89 182.886 C 3.687 181.093 5.48 179.001 6.974 177.906 C 11.755 174.419 18.13 172.726 24.505 173.124 C 24.505 175.614 24.605 178.104 24.505 180.494 C 24.505 180.794 24.505 180.993 24.405 181.292 C 24.306 182.686 24.306 183.284 24.206 183.982 C 23.908 186.87 23.708 187.268 22.613 187.767 Z M 52.695 338.079 L 52.495 338.279 C 48.81 341.466 47.017 342.761 44.726 344.056 C 40.941 346.347 38.351 345.849 36.558 343.658 C 36.259 343.358 36.06 342.96 35.861 342.661 C 35.761 342.561 35.661 342.363 35.562 342.263 L 35.562 342.163 C 35.762 340.37 36.459 339.075 38.252 336.286 C 38.352 336.186 38.352 336.186 38.352 336.087 C 39.447 334.493 39.945 333.597 40.443 332.501 L 38.65 331.704 C 38.252 332.601 37.754 333.398 36.757 334.991 C 36.657 335.091 36.657 335.091 36.657 335.191 C 34.865 337.781 34.067 339.374 33.669 341.167 L 33.569 341.167 L 33.27 341.167 C 33.07 341.067 32.772 340.868 32.374 340.47 C 28.489 334.294 31.577 329.015 40.342 322.44 C 41.438 321.644 45.124 319.054 46.12 318.257 C 46.32 318.257 46.518 318.157 46.718 318.057 C 52.096 322.64 58.372 326.624 65.345 329.911 C 65.345 330.011 65.445 330.111 65.544 330.211 C 61.46 331.206 58.272 333.298 52.694 338.079 Z M 219.942 327.222 C 223.03 332.402 222.93 336.585 219.045 339.474 C 218.747 338.876 218.547 338.179 218.149 337.183 C 218.149 337.083 218.149 337.083 218.049 336.983 C 216.655 333.198 215.759 331.605 214.065 329.812 L 212.67 331.206 C 214.164 332.601 214.862 334.095 216.256 337.581 C 216.256 337.681 216.256 337.681 216.356 337.781 C 216.854 339.075 217.153 339.872 217.452 340.57 C 214.862 342.761 212.571 343.16 210.18 342.064 C 208.088 341.167 206.096 339.274 202.908 335.689 C 202.709 335.489 202.51 335.191 202.311 334.892 C 202.211 334.792 202.111 334.692 202.011 334.493 C 201.813 334.294 201.813 334.294 201.713 334.095 C 198.027 329.812 195.836 327.521 193.445 326.225 C 199.024 323.038 204.005 319.452 208.487 315.268 C 212.67 318.356 217.352 322.938 219.942 327.222 Z M 221.336 294.948 C 212.77 312.181 197.629 324.333 177.308 331.704 C 159.976 337.98 139.456 340.57 118.239 339.773 C 81.682 338.478 50.006 325.728 35.164 301.622 C 25.203 285.584 21.915 265.164 22.812 237.074 C 23.111 229.404 23.509 222.531 24.505 209.98 C 25.601 195.835 25.9 191.751 26.199 185.376 C 26.398 180.794 26.398 176.112 26.299 171.132 C 26.099 162.366 25.601 155.393 24.306 139.754 C 22.513 119.035 22.015 109.97 22.214 98.614 C 22.514 83.674 24.505 70.524 28.689 58.074 C 35.46 37.851 47.913 24.204 65.843 15.34 C 80.884 7.97 99.113 4.184 123.916 2.191 C 147.126 2.191 164.059 4.283 178.702 9.662 C 196.233 16.137 209.282 27.492 218.247 44.925 C 224.025 59.069 227.412 74.31 229.205 91.841 C 230.599 105.189 230.898 115.947 230.998 140.351 L 230.998 148.121 C 231.098 160.174 231.296 168.641 231.795 177.108 C 231.994 180.395 232.093 181.79 232.591 189.659 C 233.687 206.593 234.086 215.359 234.185 225.519 C 234.385 254.107 230.798 276.121 221.335 294.948 Z M 251.817 185.874 C 251.717 185.874 251.618 185.774 251.519 185.774 C 249.726 185.177 249.128 184.778 248.53 184.081 L 246.936 185.276 C 247.833 186.472 248.729 186.97 250.722 187.666 C 250.323 191.253 248.63 192.548 245.742 192.249 C 243.152 192.049 239.764 190.456 236.975 188.563 C 236.178 187.966 235.382 187.567 234.585 187.169 C 234.485 187.169 234.385 187.069 234.285 187.069 C 233.887 181.591 233.887 180.196 233.688 177.307 L 233.389 171.928 C 238.968 172.028 244.446 173.721 248.629 176.809 C 250.124 177.905 251.917 179.997 252.714 181.789 C 253.71 183.483 253.511 184.977 251.817 185.874 Z"/>
    <path fill="#ffffff" stroke="none" d="M 138.918 104.123 C 139.018 109.203 140.014 114.781 139.117 120.16 C 137.722 122.75 135.133 123.05 132.842 124.045 C 129.654 123.547 126.964 121.455 125.67 118.467 C 124.873 112.391 125.869 106.613 126.168 100.537 C 126.168 100.337 129.953 100.637 133.34 101.633 C 136.228 102.529 138.918 104.023 138.918 104.123 Z M 110.728 104.521 C 107.938 115.081 114.414 132.313 125.072 118.168 C 124.275 112.191 125.172 106.414 125.47 100.537 C 125.57 100.039 110.828 103.824 110.728 104.521 Z"/>
    <path fill="#000000" stroke="none" d="M 140.113 108.805 C 139.913 105.816 139.814 104.621 139.814 103.127 L 139.814 102.43 L 139.117 102.23 L 126.566 98.346 L 126.566 97.648 L 125.271 97.948 L 125.171 97.948 L 125.171 98.047 L 111.027 101.633 L 110.529 101.733 L 110.329 102.23 C 108.138 107.51 108.636 115.479 111.425 120.36 C 114.613 125.938 119.792 126.037 125.072 119.662 C 126.56412998525 122.54175691435 129.33780830553 124.53939939937 132.542 125.042 L 132.842 125.042 L 133.14 124.942 C 133.539 124.742 133.937 124.642 134.635 124.344 C 134.735 124.344 134.735 124.344 134.834 124.244 C 137.722 123.248 138.918 122.451 139.914 120.559 L 140.014 120.459 L 140.014 120.26 C 140.312 118.467 140.412 116.574 140.412 114.483 C 140.412 112.988 140.312 111.593 140.113 108.805 Z M 124.175 105.119 C 124.075 106.912 123.976 107.609 123.877 108.605 C 123.677 112.291 123.677 115.08 123.977 117.869 C 119.294 123.846 115.609 123.846 113.119 119.363 C 110.728 115.18 110.229 108.107 112.023 103.426 L 124.573 100.238 C 124.474 101.533 124.375 102.828 124.175 105.119 Z M 138.121 119.862 C 137.424 121.057 136.527 121.655 134.136 122.452 C 134.036 122.452 134.036 122.452 133.937 122.551 C 133.34 122.751 132.941 122.949 132.642 123.049 C 129.952 122.551 127.662 120.758 126.566 118.268 C 126.267 115.578 126.267 112.789 126.466 109.104 C 126.566 108.107 126.566 107.41 126.766 105.617 C 126.964 103.327 127.064 101.932 127.064 100.637 L 137.922 103.924 C 137.922 105.219 138.022 106.414 138.221 109.004 C 138.42 111.694 138.519 113.088 138.519 114.682 C 138.519 116.574 138.419 118.268 138.121 119.862 Z"/>
    <path fill="#ffffff" stroke="none" transform="matrix(1 0 0 1 48.476 21.976)" d="M 2.291 38.749 C 11.455 74.409 68.532 65.245 66.341 29.485 C 63.75 -13.348 -6.475 -5.08 2.29 38.749"/>
    <path fill="#000000" stroke="none" transform="matrix(1 0 0 1 48.476 21.976)" d="M 67.337 29.385 C 66.739 19.025 62.157 10.957 54.587 5.877 C 47.813 1.295 38.848 -0.498 29.983 0.597 C 21.118 1.794 12.949 5.778 7.57 12.054 C 1.594 19.026 -0.697 28.19 1.395 38.749 L 2.291 38.549 L 1.395 38.749 C 10.758 75.405 69.528 66.54 67.337 29.385 Z M 3.187 38.55 C 1.195 28.49 3.387 19.923 8.965 13.448 C 14.045 7.571 21.715 3.687 30.182 2.591 C 38.649 1.495 47.116 3.189 53.492 7.571 C 60.563 12.353 64.847 19.824 65.444 29.685 C 67.536 64.449 12.053 72.817 3.188 38.55 Z"/>
    <path fill="#000000" stroke="none" transform="matrix(1 0 0 1 48.476 21.976)" d="M 27.692 32.872 C 27.692 38.64834619848 23.36617525287 43.331 18.03 43.331 C 12.69382474713 43.331 8.368 38.64834619848 8.368 32.872 C 8.368 27.09565380152 12.69382474713 22.413 18.03 22.413 C 23.36617525287 22.413 27.692 27.09565380152 27.692 32.872 Z"/>
    <path fill="#ffffff" stroke="none" transform="matrix(1 0 0 1 48.476 21.976)" d="M 24.703 35.262 C 24.703 36.7470936923 23.67728436186 37.951 22.412 37.951 C 21.14671563814 37.951 20.121 36.7470936923 20.121 35.262 C 20.121 33.77690630771 21.14671563814 32.573 22.412 32.573 C 23.67728436186 32.573 24.703 33.77690630771 24.703 35.262 Z"/>
    <path fill="#ffffff" stroke="none" transform="matrix(1 0 0 1 129.618 18.098)" d="M 1.195 35.96 C 8.268 76.9 75.206 66.042 65.544 24.803 C 56.878 -12.252 -1.196 -1.992 1.195 35.96"/>
    <path fill="#000000" stroke="none" transform="matrix(1 0 0 1 129.618 18.098)" d="M 66.44 24.604 C 57.575 -13.547 -2.19 -3.088 0.2 36.059 L 0.2 36.159 C 3.486 55.483 20.72 65.345 39.745 62.157 C 48.41 60.663 56.18 56.48 61.26 50.304 C 66.838 43.43 68.83 34.565 66.44 24.604 Z M 59.767 49.108 C 54.985 54.886 47.714 58.87 39.446 60.265 C 21.416 63.253 5.279 53.989 2.092 35.86 C -0.1 -0.996 56.28 -10.858 64.647 25.002 C 66.839 34.465 65.046 42.733 59.767 49.108 Z"/>
    <path fill="#000000" stroke="none" transform="matrix(1 0 0 1 129.618 18.098)" d="M 27.094 34.167 C 27.094 39.94334619848 22.85727058765 44.626 17.631 44.626 C 12.40472941235 44.626 8.168 39.94334619848 8.168 34.167 C 8.168 28.39065380152 12.40472941235 23.708 17.631 23.708 C 22.85727058765 23.708 27.094 28.39065380152 27.094 34.167 Z"/>
    <path fill="#ffffff" stroke="none" transform="matrix(1 0 0 1 129.618 18.098)" d="M 24.205 36.557 C 24.205 38.0420936923 23.22405588688 39.246 22.014 39.246 C 20.80394411312 39.246 19.823 38.0420936923 19.823 36.557 C 19.823 35.07190630771 20.80394411312 33.868 22.014 33.868 C 23.22405588688 33.868 24.205 35.07190630771 24.205 36.557 Z"/>
    <path fill="#f6d2a2" stroke="none" d="M 112.785 83.002 C 104.915 83.699 98.54 92.963 102.625 100.334 C 108.003 110.096 120.056 99.438 127.527 100.434 C 136.193 100.634 143.266 109.598 150.139 102.028 C 157.809 93.66 146.852 85.492 138.185 81.906 Z"/>
    <path fill="#231f20" stroke="none" d="M 151.135 89.676 C 148.445 86.289 143.764 83.201 138.683 81.109 L 138.484 81.009 L 138.285 81.009 L 112.785 82.006 C 103.919 82.803 97.545 93.063 101.827 100.832 C 103.521 103.821 105.812 105.315 108.9 105.514 C 111.19 105.614 113.582 105.116 117.267 103.821 C 117.566 103.721 117.964 103.621 118.462 103.422 C 123.443 101.729 125.435 101.231 127.427 101.53 L 127.527 101.53 C 129.917 101.53 131.91 102.227 135.695 103.721 C 139.879 105.414 141.174 105.913 143.265 106.111 C 146.155 106.311 148.645 105.315 150.935 102.825 C 154.82 98.541 154.621 93.959 151.135 89.676 Z M 149.441 101.43 C 147.549 103.522 145.656 104.22 143.365 104.12 C 141.572 104.02 140.377 103.522 136.392 101.928 C 132.408 100.235 130.217 99.638 127.627 99.538 C 125.137 99.238 123.045 99.737 117.765 101.53 C 117.267 101.729 116.869 101.829 116.57 101.928 C 109.298 104.418 105.812 104.219 103.421 99.836 C 99.835 93.362 105.314 84.596 112.785 83.899 L 137.986 82.902 C 142.768 84.895 147.051 87.783 149.541 90.872 C 152.529 94.457 152.629 98.043 149.441 101.43 Z"/>
    <path fill="#000000" stroke="none" d="M 140.178 78.719 C 137.09 67.363 111.191 69.057 111.788 82.604 C 113.083 92.664 143.166 89.974 140.178 78.719 Z"/>
</svg>
