<svg width="256" height="346" viewBox="0 0 256 346" xmlns="http://www.w3.org/2000/svg" xmlns:usvg="https://github.com/RazrFalcon/resvg" usvg:version="0.13.1">
    <defs/>
    <path fill="#5382a1" stroke="none" d="M 82.5539491 267.472524 C 82.5539491 267.472524 69.35552 275.147869 91.9468218 277.745105 C 119.315549 280.867375 133.303389 280.419607 163.463913 274.711273 C 163.463913 274.711273 171.393396 279.683258 182.467491 283.989644 C 114.855564 312.966982 29.4483782 282.311215 82.5539491 267.472524"/>
    <path fill="#5382a1" stroke="none" d="M 74.2921309 229.658996 C 74.2921309 229.658996 59.4888145 240.616727 82.0968727 242.955171 C 111.333004 245.971316 134.421411 246.218007 174.373236 238.524975 C 174.373236 238.524975 179.899113 244.127185 188.588218 247.190807 C 106.841367 271.094691 15.79008 249.075898 74.2921309 229.658996"/>
    <path fill="#e76f00" stroke="none" d="M 143.941818 165.514705 C 160.601367 184.695156 139.564684 201.955142 139.564684 201.955142 C 139.564684 201.955142 181.866124 180.117876 162.438982 152.772422 C 144.294633 127.271098 130.380335 114.600495 205.706705 70.9138618 C 205.706705 70.9138618 87.4691491 100.44416 143.941818 165.514705"/>
    <path fill="#5382a1" stroke="none" d="M 233.364015 295.441687 C 233.364015 295.441687 243.131113 303.489396 222.60736 309.715316 C 183.580858 321.537862 60.1748945 325.107898 25.8932364 310.186356 C 13.5698618 304.825251 36.67968 297.385425 43.9491491 295.824291 C 51.5304727 294.180305 55.8629236 294.486575 55.8629236 294.486575 C 42.15808 284.832116 -32.7195927 313.443607 17.8287709 321.637469 C 155.681513 343.993251 269.121164 311.570618 233.364015 295.441687"/>
    <path fill="#5382a1" stroke="none" d="M 88.9008873 190.479825 C 88.9008873 190.479825 26.1287564 205.389265 66.6717091 210.803433 C 83.7901964 213.095331 117.915462 212.576815 149.702284 209.913484 C 175.680233 207.722124 201.765236 203.062924 201.765236 203.062924 C 201.765236 203.062924 192.605091 206.985775 185.977949 211.510924 C 122.233949 228.275665 -0.907636364 220.476509 34.5432436 203.328233 C 64.5241018 188.83584 88.9008873 190.479825 88.9008873 190.479825"/>
    <path fill="#5382a1" stroke="none" d="M 201.506444 253.422313 C 266.305164 219.7504 236.344785 187.392 215.432844 191.751447 C 210.307258 192.818269 208.021876 193.742662 208.021876 193.742662 C 208.021876 193.742662 209.924655 190.761891 213.558924 189.471651 C 254.929455 174.927127 286.746065 232.368873 200.204102 255.11936 C 200.204102 255.120291 201.206691 254.223825 201.506444 253.422313"/>
    <path fill="#e76f00" stroke="none" d="M 162.438982 0.371432727 C 162.438982 0.371432727 198.325527 36.27008 128.402153 91.4720582 C 72.3307055 135.753542 115.616116 161.001658 128.37888 189.848669 C 95.6490473 160.318371 71.6297309 134.322735 87.7437673 110.128407 C 111.395375 74.6132945 176.918342 57.3942691 162.438982 0.371432727"/>
    <path fill="#5382a1" stroke="none" d="M 95.2683055 344.665367 C 157.466996 348.646865 252.980131 342.45632 255.24224 313.025629 C 255.24224 313.025629 250.893964 324.182575 203.838371 333.042967 C 150.750487 343.033484 85.2740655 341.867055 46.4393309 335.464262 C 46.4402618 335.463331 54.3892945 342.043927 95.2683055 344.665367"/>
</svg>
