<svg width="630" height="630" viewBox="0 0 630 630" xmlns="http://www.w3.org/2000/svg" xmlns:usvg="https://github.com/RazrFalcon/resvg" usvg:version="0.13.1">
    <defs/>
    <path fill="#f7df1e" stroke="none" d="M 0 0 L 630 0 L 630 630 L 0 630 Z"/>
    <path fill="#000000" stroke="none" d="M 423.2 492.19 C 435.89 512.91 452.4 528.14 481.6 528.14 C 506.13 528.14 521.8 515.88 521.8 498.94 C 521.8 478.64 505.7 471.45 478.7 459.64 L 463.9 453.29 C 421.18 435.09 392.8 412.29 392.8 364.09 C 392.8 319.69 426.63 285.89 479.5 285.89 C 517.14 285.89 544.2 298.99 563.7 333.29 L 517.6 362.89 C 507.45 344.69 496.5 337.52 479.5 337.52 C 462.16 337.52 451.17 348.52 451.17 362.89 C 451.17 380.65 462.17 387.84 487.57 398.84 L 502.37 405.18 C 552.67 426.75 581.07 448.74 581.07 498.18 C 581.07 551.48 539.2 580.68 482.97 580.68 C 427.99 580.68 392.47 554.48 375.09 520.14 Z M 214.07 497.32 C 223.37 513.82 231.83 527.77 252.17 527.77 C 271.62 527.77 283.89 520.16 283.89 490.57 L 283.89 289.27 L 343.09 289.27 L 343.09 491.37 C 343.09 552.67 307.15 580.57 254.69 580.57 C 207.29 580.57 179.84 556.04 165.88 526.495 Z"/>
</svg>
