<svg width="64" height="64" viewBox="0 0 64 64" xmlns="http://www.w3.org/2000/svg" xmlns:usvg="https://github.com/RazrFalcon/resvg" usvg:version="0.13.1">
    <defs/>
    <path fill="#99424f" stroke="none" d="M 59.336 31.518 C 59.336 27.664 56.686 24.421 53.129 23.495 L 61.097 0 L 21.61 0 L 29.596 23.57 C 26.15 24.57 23.611 27.758 23.611 31.538 C 23.611 34.318 25.011 36.782 27.113 38.301 C 26.279 39.487 25.316 40.581 24.223 41.618 C 22.166 43.545 19.887 45.028 17.423 46.008 C 15.199 44.508 14.236 41.858 15.107 39.486 C 18.497 38.448 20.962 35.28 20.962 31.556 C 20.962 26.979 17.238 23.273 12.679 23.273 C 8.102 23.273 4.379 26.997 4.379 31.573 C 4.38009020161 33.7547808255 5.24642406691 35.84707241052 6.788 37.391 L 6.398 38.188 C 5.158 40.745 3.748 43.636 3.211 46.888 C 2.136 53.373 3.897 58.58 8.141 61.526 C 10.541 63.176 13.161 64.009 15.997 64.009 C 20.87 64.009 25.817 61.563 30.597 59.191 C 34.007 57.505 37.527 55.745 40.992 54.891 C 42.272 54.576 43.605 54.391 45.012 54.187 C 47.866 53.779 50.812 53.353 53.462 51.815 C 56.556 50.018 58.669 47.015 59.28 43.569 C 59.743 40.919 59.28 38.251 58.094 35.916 C 58.891 34.636 59.334 33.136 59.334 31.526 Z M 55.723 31.518 C 55.723 34.094 53.629 36.188 51.053 36.188 C 48.477 36.188 46.383 34.094 46.383 31.518 C 46.383 30.684 46.605 29.888 46.993 29.202 C 47.141 28.942 47.327 28.682 47.513 28.462 C 47.70636976897 28.23524239701 47.92400154205 28.03035331634 48.162 27.851 L 48.182 27.831 C 48.33 27.721 48.497 27.609 48.664 27.497 C 48.664 27.497 48.684 27.497 48.684 27.477 C 48.758 27.44 48.832 27.384 48.906 27.347 C 48.926 27.347 48.943 27.327 48.962 27.327 C 49.036 27.29 49.129 27.253 49.222 27.217 C 49.315 27.181 49.407 27.143 49.482 27.107 C 49.502 27.107 49.519 27.087 49.538 27.087 C 49.612 27.067 49.686 27.031 49.76 27.013 C 49.78 27.013 49.816 26.993 49.834 26.993 L 50.094 26.937 L 50.114 26.937 L 50.392 26.881 C 50.412 26.881 50.448 26.881 50.466 26.861 C 50.54 26.861 50.614 26.841 50.688 26.841 L 50.781 26.841 C 50.874 26.841 50.966 26.821 51.077 26.821 L 51.317 26.821 C 51.38554588561 26.81809647289 51.45416929822 26.82448786916 51.521 26.84 L 51.558 26.84 C 51.706 26.86 51.854 26.877 52.003 26.914 C 54.17116746349 27.37816712117 55.72199067328 29.29170972293 55.727 31.509 Z M 26.78 3.706 L 55.927 3.706 L 49.237 23.44 C 48.959 23.496 48.681 23.588 48.403 23.68 L 41.363 9.32 L 34.303 23.588 C 34.025 23.495 33.729 23.44 33.433 23.384 Z M 40.028 29.906 C 39.676 28.164 38.788 26.608 37.528 25.459 L 41.364 17.714 L 45.237 25.626 C 44.05814233022 26.79179996351 43.25206533819 28.28144138229 42.921 29.906 Z M 30.745 26.978 L 31.005 26.922 L 31.061 26.922 C 31.135 26.902 31.209 26.902 31.283 26.885 L 31.357 26.885 C 31.431 26.885 31.487 26.865 31.561 26.865 L 32.284 26.865 C 32.358 26.865 32.414 26.885 32.469 26.885 C 32.506 26.885 32.525 26.885 32.562 26.905 C 32.636 26.925 32.692 26.925 32.766 26.942 C 32.786 26.942 32.803 26.942 32.84 26.962 L 33.1 27.018 C 33.193 27.038 33.267 27.055 33.34 27.092 C 33.36 27.092 33.377 27.112 33.414 27.112 C 33.47 27.132 33.544 27.149 33.599 27.186 C 33.619 27.186 33.636 27.206 33.655 27.206 C 33.729 27.243 33.803 27.262 33.877 27.299 L 33.897 27.299 C 33.9829142724 27.33107760042 34.06400768069 27.37482093269 34.138 27.429 C 34.231 27.466 34.305 27.522 34.378 27.559 C 34.398 27.559 34.398 27.579 34.415 27.579 C 34.489 27.616 34.545 27.672 34.619 27.709 L 34.639 27.729 C 34.861 27.896 35.065 28.081 35.269 28.266 L 35.289 28.286 C 35.474 28.49 35.659 28.712 35.809 28.953 C 36.30608636122 29.71306572698 36.57024447059 30.60181873443 36.569 31.51 C 36.569 34.086 34.475 36.18 31.899 36.18 C 29.323 36.18 27.229 34.086 27.229 31.51 C 27.209 29.342 28.711 27.508 30.749 26.99 Z M 12.512 26.848 C 15.088 26.848 17.182 28.942 17.182 31.518 C 17.182 34.094 15.088 36.188 12.512 36.188 C 9.936 36.188 7.842 34.094 7.842 31.518 C 7.842 28.942 9.936 26.848 12.512 26.848 Z M 55.612 42.913 C 55.204 45.285 53.742 47.36 51.592 48.601 C 49.572 49.768 47.089 50.139 44.477 50.511 C 43.05 50.715 41.549 50.937 40.104 51.289 C 36.25 52.234 32.544 54.087 28.949 55.866 C 24.354 58.146 20.019 60.294 15.997 60.294 C 13.903 60.294 12.032 59.701 10.253 58.46 C 6.177 55.644 6.38 50.363 6.863 47.472 C 7.308 44.767 8.549 42.228 9.735 39.802 C 9.809 39.654 9.865 39.524 9.939 39.376 C 10.347 39.524 10.773 39.636 11.219 39.71 C 10.515 43.638 12.516 47.696 16.407 49.697 L 17.111 50.067 L 17.871 49.789 C 21.114 48.639 24.115 46.769 26.765 44.267 C 28.22904324799 42.90186135479 29.52305784272 41.36509311398 30.619 39.69 C 31.045 39.764 31.471 39.783 31.899 39.783 C 35.753 39.783 38.996 37.133 39.922 33.576 L 43.035 33.576 C 43.961 37.152 47.205 39.783 51.058 39.783 C 52.53189286378 39.78334217932 53.97863188575 39.38642165969 55.246 38.634 C 55.728 40.034 55.876 41.469 55.616 42.914 Z"/>
</svg>
