<svg width="947" height="947" viewBox="0 0 947 947" xmlns="http://www.w3.org/2000/svg" xmlns:usvg="https://github.com/RazrFalcon/resvg" usvg:version="0.13.1">
    <defs/>
    <g enable-background="new 0 0 947 947">
        <path fill="#000080" stroke="none" d="M 835.5 473.6 C 835.5 273.8 673.3 111.6 473.5 111.6 C 273.7 111.6 111.5 273.8 111.5 473.6 C 111.5 673.4 273.7 835.6 473.5 835.6 C 673.3 835.6 835.5 673.4 835.5 473.6"/>
        <path fill="#ffffff" stroke="none" d="M 729.5 323.6 C 729.5 265.1 682 217.6 623.5 217.6 C 565 217.6 517.5 265.1 517.5 323.6 C 517.5 382.1 565 429.6 623.5 429.6 C 682 429.6 729.5 382.1 729.5 323.6"/>
        <path fill="#000080" stroke="none" d="M 941.5 111.5 C 941.5 53 894 5.5 835.5 5.5 C 777 5.5 729.5 53 729.5 111.5 C 729.5 170 777 217.5 835.5 217.5 C 894 217.5 941.5 170.1 941.5 111.5"/>
        <path fill="#ffffff" stroke="none" d="M 258.1 627.8 L 375.4 627.8 L 375.4 654.5 L 227.8 654.5 L 227.8 417 L 258.1 417 L 258.1 627.8 Z"/>
        <path fill="#ffffff" stroke="none" d="M 515.5 654.5 L 515.5 630.7 C 499.5 653.2 483.6 662 458.5 662 C 425.3 662 404.1 643.8 404.1 615.4 L 404.1 483.8 L 431.1 483.8 L 431.1 604.7 C 431.1 625.2 444.8 638.3 466.3 638.3 C 494.6 638.3 512.9 615.5 512.9 580.6 L 512.9 483.8 L 539.9 483.8 L 539.9 654.5 L 515.5 654.5 Z"/>
        <path fill="#ffffff" stroke="none" d="M 738.4 659.1 C 729.6 661.4 725.4 662 719.8 662 C 702.2 662 693.7 654.2 691.8 636.9 C 672.6 654.5 655.3 662 633.8 662 C 599.3 662 577.8 642.5 577.8 611.5 C 577.8 589.3 587.9 574 607.8 565.9 C 618.2 561.7 624.1 560.4 662.5 555.5 C 684 552.9 690.8 548 690.8 536.6 L 690.8 529.4 C 690.8 513.1 677.1 504 652.7 504 C 627.3 504 614.9 513.4 612.6 534.3 L 585.2 534.3 C 585.9 517.4 589.1 507.6 596.9 498.8 C 608.3 486.1 628.8 478.9 653.6 478.9 C 695.6 478.9 717.8 495.2 717.8 525.5 L 717.8 625.9 C 717.8 634.4 723 639.3 732.5 639.3 C 734.1 639.3 735.4 639.3 738.4 638.6 L 738.4 659.1 Z M 690.8 570.1 C 681.7 574.3 675.8 575.6 647.1 579.5 C 618.1 583.7 606 592.9 606 610.8 C 606 628.1 618.4 638.2 639.6 638.2 C 655.6 638.2 668.9 633 680 622.9 C 688.1 615.4 690.8 609.9 690.8 600.7 L 690.8 570.1 Z"/>
        <path fill="none" stroke="#808080" stroke-miterlimit="10" stroke-width="10.8612" stroke-dasharray="40.8475 40.8475" d="M 890.6 261 C 924.1 326.8 941.6 399.6 941.6 473.5 C 941.6 731.9 731.9 941.6 473.5 941.6 C 215.1 941.6 5.4 731.9 5.4 473.5 C 5.4 215.1 215.1 5.4 473.5 5.4 C 556.6 5.4 638.1 27.5 709.7 69.3"/>
    </g>
</svg>
