<svg width="64" height="64" viewBox="0 0 32 32" xmlns="http://www.w3.org/2000/svg" xmlns:usvg="https://github.com/RazrFalcon/resvg" usvg:version="0.13.1">
    <defs/>
    <path fill="#599636" stroke="none" d="M 15.9 0.087 L 16.754 1.691 C 16.946 1.987 17.154 2.249 17.399 2.493 C 18.114 3.208 18.793 3.957 19.403 4.759 C 20.85 6.659 21.826 8.769 22.523 11.051 C 22.941 12.445 23.168 13.875 23.185 15.321 C 23.255 19.644 21.773 23.356 18.785 26.441 C 18.297 26.929 17.775 27.381 17.215 27.783 C 16.919 27.783 16.779 27.556 16.657 27.347 C 16.43 26.964 16.291 26.527 16.221 26.092 C 16.116 25.569 16.047 25.046 16.081 24.506 L 16.081 24.262 C 16.057 24.21 15.796 0.21 15.9 0.087 Z"/>
    <path fill="#6cac48" stroke="none" d="M 15.9 0.034 C 15.865 -0.036 15.83 0.017 15.795 0.051 C 15.812 0.401 15.69 0.713 15.499 1.011 C 15.289 1.307 15.011 1.534 14.732 1.778 C 13.182 3.12 11.962 4.741 10.985 6.554 C 9.685 8.994 9.015 11.609 8.825 14.362 C 8.738 15.355 9.139 18.859 9.452 19.87 C 10.306 22.554 11.84 24.803 13.827 26.755 C 14.315 27.225 14.837 27.661 15.377 28.08 C 15.534 28.08 15.551 27.94 15.587 27.836 C 15.65583240724 27.61346161093 15.70830555912 27.38618936072 15.744 27.156 L 16.094 24.542 L 15.9 0.034 Z"/>
    <path fill="#c2bfbf" stroke="none" d="M 16.754 28.845 C 16.789 28.445 16.981 28.113 17.19 27.782 C 16.98 27.695 16.824 27.522 16.702 27.329 C 16.597 27.155 16.51 26.946 16.442 26.754 C 16.198 26.022 16.146 25.254 16.076 24.506 L 16.076 24.053 C 15.989 24.123 15.971 24.715 15.971 24.803 C 15.92011368626 25.59357608725 15.81520208835 26.37974484485 15.657 27.156 C 15.605 27.47 15.57 27.783 15.377 28.062 C 15.377 28.097 15.377 28.132 15.394 28.184 C 15.708 29.108 15.794 30.049 15.847 31.008 L 15.847 31.358 C 15.847 31.776 15.83 31.688 16.177 31.828 C 16.317 31.88 16.473 31.898 16.613 32.002 C 16.718 32.002 16.735 31.915 16.735 31.845 L 16.683 31.27 L 16.683 29.666 C 16.666 29.386 16.718 29.108 16.753 28.846 Z"/>
</svg>
