<svg width="64" height="64" viewBox="0 0 25.6 25.6" xmlns="http://www.w3.org/2000/svg" xmlns:usvg="https://github.com/RazrFalcon/resvg" usvg:version="0.13.1">
    <defs/>
    <path fill="#00678c" fill-rule="evenodd" stroke="none" transform="matrix(0.390229 0 0 0.38781 -46.300037 -16.856717)" d="M 179.076 94.886 C 175.508 94.786 172.74 95.154 170.42 96.136 C 169.752 96.406 168.68 96.406 168.592 97.252 C 168.949 97.607 168.992 98.188 169.305 98.68 C 169.84 99.573 170.778 100.776 171.625 101.4 L 174.48 103.453 C 176.22 104.523 178.183 105.148 179.878 106.219 C 180.86 106.844 181.841 107.647 182.823 108.317 C 183.323 108.674 183.626 109.255 184.251 109.477 L 184.251 109.342 C 183.939 108.942 183.849 108.362 183.538 107.914 L 182.198 106.621 C 180.905 104.881 179.298 103.363 177.558 102.115 C 176.13 101.133 173.008 99.795 172.428 98.145 L 172.34 98.045 C 173.32 97.945 174.48 97.598 175.418 97.33 C 176.936 96.93 178.318 97.018 179.878 96.617 L 182.021 95.992 L 182.021 95.592 C 181.218 94.789 180.638 93.718 179.791 92.96 C 177.516 90.997 175.016 89.078 172.428 87.472 C 171.045 86.58 169.26 85.999 167.788 85.242 C 167.251 84.974 166.36 84.84 166.048 84.394 C 165.243 83.414 164.798 82.119 164.218 80.958 L 160.56 73.195 C 159.757 71.455 159.265 69.715 158.285 68.109 C 153.689 60.524 148.691 55.929 141.017 51.422 C 139.367 50.485 137.404 50.082 135.317 49.592 L 131.971 49.412 C 131.256 49.1 130.543 48.252 129.918 47.85 C 127.375 46.244 120.816 42.764 118.941 47.35 C 117.736 50.25 120.726 53.105 121.741 54.578 C 122.501 55.604 123.481 56.764 124.018 57.924 C 124.318 58.682 124.418 59.486 124.731 60.289 C 125.444 62.252 126.114 64.439 127.051 66.269 C 127.551 67.206 128.076 68.189 128.701 69.036 C 129.058 69.536 129.683 69.75 129.816 70.553 C 129.191 71.446 129.148 72.783 128.791 73.9 C 127.184 78.942 127.809 85.188 130.084 88.9 C 130.799 90.015 132.484 92.47 134.77 91.532 C 136.778 90.729 136.33 88.186 136.91 85.955 C 137.045 85.42 136.955 85.063 137.222 84.705 L 137.222 84.805 L 139.052 88.508 C 140.435 90.694 142.845 92.97 144.852 94.488 C 145.922 95.291 146.77 96.675 148.108 97.165 L 148.108 97.03 L 148.02 97.03 C 147.752 96.63 147.35 96.45 146.993 96.138 C 146.19 95.335 145.298 94.353 144.673 93.461 C 142.8 90.963 141.15 88.196 139.677 85.341 C 138.962 83.958 138.337 82.441 137.759 81.058 C 137.489 80.522 137.489 79.718 137.044 79.452 C 136.374 80.432 135.394 81.282 134.901 82.486 C 134.053 84.404 133.965 86.769 133.653 89.223 C 133.473 89.268 133.553 89.223 133.473 89.323 C 132.047 88.967 131.555 87.493 131.02 86.245 C 129.682 83.077 129.458 77.991 130.618 74.332 C 130.93 73.395 132.27 70.45 131.735 69.558 C 131.465 68.71 130.575 68.22 130.083 67.55 C 129.503 66.702 128.88 65.632 128.478 64.695 C 127.408 62.195 126.873 59.43 125.712 56.931 C 125.175 55.771 124.239 54.566 123.48 53.496 C 122.632 52.291 121.697 51.443 121.027 50.016 C 120.804 49.516 120.492 48.722 120.849 48.186 C 120.937 47.829 121.117 47.686 121.472 47.606 C 122.052 47.106 123.704 47.74 124.284 48.006 C 125.934 48.676 127.317 49.3 128.7 50.236 C 129.325 50.682 129.995 51.53 130.798 51.754 L 131.736 51.754 C 133.164 52.066 134.769 51.854 136.106 52.254 C 138.471 53.014 140.612 54.128 142.532 55.334 C 148.376 59.037 153.196 64.302 156.452 70.594 C 156.987 71.62 157.21 72.557 157.702 73.628 C 158.64 75.815 159.8 78.045 160.735 80.188 C 161.673 82.285 162.565 84.428 163.903 86.168 C 164.573 87.105 167.249 87.595 168.453 88.086 C 169.346 88.486 170.728 88.846 171.533 89.336 C 173.049 90.273 174.566 91.344 175.993 92.37 C 176.706 92.904 178.938 94.02 179.071 94.91 Z M 133.576 56.114 C 132.95956314164 56.10854680514 132.34504746511 56.18351233898 131.748 56.337 L 131.748 56.437 L 131.836 56.437 C 132.193 57.151 132.818 57.642 133.264 58.267 L 134.291 60.409 L 134.379 60.309 C 135.004 59.863 135.317 59.149 135.317 58.079 C 135.049 57.767 135.005 57.454 134.782 57.142 C 134.514 56.696 133.934 56.472 133.576 56.116 Z"/>
</svg>
