<svg width="64" height="64" viewBox="-35.5 26 32 32" xmlns="http://www.w3.org/2000/svg" xmlns:usvg="https://github.com/RazrFalcon/resvg" usvg:version="0.13.1">
    <defs/>
    <path fill="#009438" stroke="none" d="M -33.442 42.023 L -33.442 34.386 C -33.45731332641 34.11106401903 -33.30530539944 33.85403243342 -33.057 33.735 L -19.884 26.127 C -19.647 25.979 -19.381 25.949 -19.144 26.097 L -5.912 33.734 C -5.68075121652 33.86706410242 -5.54361980523 34.11853607073 -5.557 34.385 L -5.557 49.63 C -5.54361980523 49.89646392927 -5.68075121652 50.14793589758 -5.912 50.281 L -17.279 56.851 C -17.87455908219 57.20744205284 -18.47666212301 57.55283449486 -19.085 57.887 C -19.351 58.035 -19.618 58.035 -19.885 57.887 L -33.087 50.279 C -33.324 50.131 -33.442 49.953 -33.442 49.657 L -33.442 42.02 Z"/>
    <path fill="#fefefe" stroke="none" d="M -24.118 39.18 L -24.118 48.08 C -24.118 49.086 -24.918 49.974 -25.983 49.945 C -26.633 49.915 -27.137 49.649 -27.483 49.087 C -27.661 48.821 -27.72 48.525 -27.72 48.199 L -27.72 35.836 C -27.72 35.006 -27.217 34.416 -26.566 34.149 C -25.915 33.882 -25.264 33.942 -24.612 34.149 C -23.99 34.327 -23.517 34.711 -23.112 35.185 L -15.238 44.628 C -15.208 44.658 -15.178 44.718 -15.12 44.776 L -15.12 35.776 C -15.12 34.829 -14.47 34.089 -13.55 34 C -12.396 33.852 -11.626 34.68 -11.508 35.54 L -11.508 48.14 C -11.508 48.84 -11.834 49.354 -12.426 49.68 C -12.87 49.917 -13.344 49.976 -13.846 49.946 C -14.57212379398 49.89767830875 -15.26065269346 49.60556446142 -15.8 49.117 C -16.096 48.851 -16.303 48.525 -16.57 48.229 L -24.06 39.259 C -24.06 39.229 -24.09 39.199 -24.12 39.169 Z"/>
</svg>
