<svg width="64" height="64" viewBox="0 0 32 32" xmlns="http://www.w3.org/2000/svg" xmlns:usvg="https://github.com/RazrFalcon/resvg" usvg:version="0.13.1">
    <defs/>
    <path fill="#8cc84b" stroke="none" d="M 14.656 0.427 C 15.456 -0.026 16.476 -0.028 17.256 0.427 L 29.2 7.16 C 29.947 7.58 30.447 8.413 30.44 9.274 L 30.44 22.774 C 30.445 23.671 29.896 24.522 29.108 24.934 L 17.228 31.636 C 16.4004908477 32.09329677863 15.38996358723 32.06534358044 14.589 31.563 L 11.024 29.503 C 10.781 29.358 10.508 29.243 10.336 29.008 C 10.488 28.804 10.758 28.778 10.978 28.688 C 11.474 28.53 11.928 28.288 12.384 28.032 C 12.499 27.952 12.64 27.982 12.75 28.054 L 15.79 29.812 C 16.007 29.937 16.227 29.772 16.413 29.667 L 28.078 23.084 C 28.222 23.014 28.302 22.862 28.29 22.704 L 28.29 9.334 C 28.306 9.154 28.203 8.99 28.04 8.917 L 16.19 2.244 C 16.05019452115 2.14730348298 15.86522008279 2.14690568849 15.725 2.243 L 3.892 8.93 C 3.732 9.003 3.622 9.165 3.642 9.345 L 3.642 22.715 C 3.628 22.873 3.712 23.022 3.857 23.09 L 7.019 24.875 C 7.613 25.195 8.342 25.375 8.996 25.14 C 9.58209093417 24.91911764947 9.96924345744 24.3573278397 9.967 23.731 L 9.97 10.441 C 9.956 10.244 10.142 10.081 10.333 10.101 L 11.853 10.101 C 12.053 10.096 12.21 10.308 12.183 10.506 L 12.18 23.88 C 12.181 25.068 11.693 26.36 10.594 26.943 C 9.24 27.643 7.566 27.496 6.228 26.823 L 2.828 24.943 C 2.028 24.543 1.491 23.679 1.496 22.783 L 1.496 9.283 C 1.50277388346 8.38946483898 1.99353759943 7.56986646465 2.778 7.142 L 14.656 0.427 Z M 18.1 9.785 C 19.827 9.685 21.676 9.719 23.23 10.57 C 24.433 11.222 25.1 12.59 25.122 13.928 C 25.088 14.108 24.9 14.208 24.728 14.195 C 24.228 14.194 23.726 14.202 23.224 14.192 C 23.011 14.2 22.888 14.004 22.861 13.816 C 22.717 13.176 22.368 12.543 21.766 12.234 C 20.842 11.771 19.77 11.794 18.762 11.804 C 18.026 11.844 17.235 11.907 16.612 12.339 C 16.132 12.667 15.988 13.339 16.159 13.861 C 16.319 14.244 16.762 14.367 17.123 14.481 C 19.205 15.025 21.41 14.981 23.453 15.688 C 24.298 15.98 25.125 16.548 25.415 17.433 C 25.793 18.619 25.628 20.037 24.785 20.989 C 24.101 21.773 23.105 22.189 22.11 22.431 C 20.787 22.726 19.415 22.733 18.072 22.601 C 16.809 22.457 15.495 22.125 14.52 21.265 C 13.686 20.541 13.28 19.413 13.32 18.325 C 13.33 18.141 13.513 18.013 13.69 18.028 L 15.19 18.028 C 15.392 18.014 15.54 18.188 15.55 18.378 C 15.643 18.978 15.872 19.628 16.404 19.978 C 17.43 20.64 18.717 20.594 19.891 20.613 C 20.864 20.57 21.956 20.557 22.751 19.913 C 23.171 19.546 23.294 18.933 23.181 18.405 C 23.058 17.959 22.581 17.752 22.181 17.605 C 20.126 16.955 17.896 17.191 15.861 16.455 C 15.035 16.163 14.236 15.611 13.919 14.762 C 13.476 13.562 13.679 12.075 14.612 11.155 C 15.512 10.24 16.832 9.887 18.082 9.761 Z"/>
</svg>
