<svg width="230" height="98.3" viewBox="0 0 230 98.3" xmlns="http://www.w3.org/2000/svg" xmlns:usvg="https://github.com/RazrFalcon/resvg" usvg:version="0.13.1">
    <defs/>
    <path fill="#b3b3b3" fill-rule="evenodd" stroke="none" transform="matrix(0.97 0 0 0.97 -144.06 -490.4)" d="M 199 581 C 187.7 581 182.1 574.06 179.9 566.8 C 182.35 578.6 195.6 590.1 237.4 595.2 C 276.9 600.06 302.6 587.88 311.3 582.2 C 311.3 582.2 317.16 579.6 313.65 583.62 C 313.65 583.62 288.75 606.72 240.05 607.02 C 191.25 607.256 152.55 582.52 152.75 557.42 C 152.516 532.42 191.25 507.62 240.05 507.82 C 288.85 508.056 313.65 531.22 313.65 531.22 C 317.17 535.23 311.3 532.64 311.3 532.64 C 302.62 526.98 277 515.84 237.4 519.64 C 198.5 523.42 185.8 536.74 181.5 545.64 C 179.88 549.09 179.14 552.35 178.96 555.62 C 180.01 547.06 185.3 537.02 198.96 537.02 C 214.46 537.02 219.16 550.02 219.16 558.92 C 219.16 567.92 214.43 580.92 198.96 580.92 Z M 356 572.35 L 376.6 572.35 L 376.6 579.9 L 347.3 579.9 L 347.3 538.2 L 355.96 538.2 L 355.96 572.3 Z M 324.2 557.45 L 341.5 557.45 L 341.5 579.95 L 335.73 579.95 L 334.864 574.72 C 332.674 577.28 329.494 581.05 321.964 581.05 C 311.984 581.05 302.964 573.85 302.964 559.25 C 302.964 547.85 309.254 537.15 323.264 537.15 C 335.964 537.15 340.964 545.45 341.464 551.15 L 332.804 551.15 C 332.804 549.53 329.864 544.3 323.744 544.3 C 317.574 544.3 311.844 548.6 311.844 559.3 C 311.844 570.7 318.014 573.6 323.944 573.6 C 325.844 573.6 332.194 572.845 333.944 564.43 L 324.304 564.43 L 324.304 557.41 Z M 199.2 542.15 C 190.2 542.15 184.8 549.29 184.8 559.15 C 184.8 568.96 190.22 576.15 199.2 576.15 C 208.2 576.15 213.6 569.01 213.6 559.15 C 213.6 549.34 208.18 542.15 199.2 542.15 Z M 222.5 553.25 L 226.7 553.25 L 226.7 557.02 L 226.801 557.02 C 227.861 555.49 229.891 552.48 234.701 552.48 C 241.741 552.48 246.801 558.48 246.801 565.98 C 246.801 572.35 243.151 580.68 234.101 580.68 C 230.551 580.68 228.221 579 227.061 577.11 L 226.96 577.11 L 226.96 590.51 L 222.5 590.51 L 222.5 553.31 Z M 233.8 576.85 C 238.66 576.85 241.96 572.61 241.96 566.75 C 241.96 563.33 240.59 556.55 233.7 556.55 C 227.27 556.55 226.56 563.53 226.56 567.85 C 226.56 574.93 230.97 576.82 233.8 576.82 Z M 273.8 571.6 C 273.647 572.87 272.43 576.65 269.09 578.89 C 267.87 579.706 266.15 580.73 261.9 580.73 C 254.45 580.73 250 575.07 250 567.33 C 250 559.07 253.95 552.53 262.7 552.53 C 270.35 552.53 274.1 558.65 274.1 568.13 L 254.7 568.13 C 254.7 573.69 257.28 576.9 262.4 576.9 C 266.6 576.9 269.09 573.64 269.24 571.65 L 273.7 571.65 Z M 269.08 564.52 C 268.827 560.39 267.1 556.57 261.68 556.57 C 257.58 556.57 254.34 560.39 254.34 564.52 L 269.04 564.52 Z M 298.78 579.92 L 294.32 579.92 L 294.32 563.52 C 294.32 558.88 293 556.54 288.65 556.54 C 286.12 556.54 281.66 558.17 281.66 565.41 L 281.66 579.91 L 277.2 579.91 L 277.2 553.21 L 281.41 553.21 L 281.41 556.98 L 281.511 556.98 C 282.474 555.55 284.951 552.44 289.511 552.44 C 293.611 552.44 298.781 554.12 298.781 561.72 L 298.781 579.92"/>
    <path fill="#5586a4" fill-rule="evenodd" stroke="none" transform="matrix(0.97 0 0 0.97 -144.06 -490.4)" d="M 197 578 C 185.6 578 179.9 571.06 177.7 563.8 C 180.18 575.6 193.6 587.1 235.8 592.2 C 275.7 597.05 301.7 584.88 310.5 579.2 C 310.5 579.2 316.43 576.6 312.87 580.62 C 312.87 580.62 287.77 603.72 238.37 604.02 C 189.07 604.256 149.87 579.52 150.17 554.42 C 149.933 529.42 189.07 504.62 238.37 504.82 C 287.67 505.056 312.87 528.22 312.87 528.22 C 316.43 532.23 310.5 529.64 310.5 529.64 C 301.73 523.98 275.8 512.84 235.8 516.64 C 196.4 520.42 183.6 533.74 179.3 542.64 C 177.66 546.09 176.91 549.35 176.73 552.62 C 177.79 544.06 183.14 534.02 196.93 534.02 C 212.53 534.02 217.33 547.02 217.33 556.02 C 217.33 565.02 212.55 577.92 196.93 577.92 Z M 356 569.35 L 376.8 569.35 L 376.8 576.9 L 347.2 576.9 L 347.2 535.2 L 355.95 535.2 L 355.95 569.3 Z M 323.9 554.45 L 341.4 554.45 L 341.4 576.95 L 335.57 576.95 L 334.694 571.73 C 332.474 574.28 329.264 578.06 321.594 578.06 C 311.494 578.06 302.294 570.86 302.294 556.26 C 302.294 544.86 308.654 534.16 322.794 534.16 C 335.594 534.16 340.694 542.46 341.194 548.16 L 332.444 548.16 C 332.444 546.54 329.464 541.31 323.284 541.31 C 317.044 541.31 311.284 545.61 311.284 556.31 C 311.284 567.71 317.524 570.61 323.484 570.61 C 325.404 570.61 331.824 569.855 333.584 561.44 L 323.844 561.44 L 323.844 554.42 Z M 196.9 539.15 C 187.8 539.15 182.3 546.29 182.3 556.15 C 182.3 565.96 187.78 573.15 196.9 573.15 C 206 573.15 211.5 566.01 211.5 556.15 C 211.5 546.34 206.02 539.15 196.9 539.15 Z M 220.5 550.25 L 224.75 550.25 L 224.75 554.02 L 224.852 554.02 C 225.932 552.49 227.972 549.48 232.842 549.48 C 239.962 549.48 245.042 555.48 245.042 562.98 C 245.042 569.35 241.352 577.68 232.242 577.68 C 228.652 577.68 226.302 576 225.122 574.11 L 225.019 574.11 L 225.019 587.51 L 220.509 587.51 L 220.509 550.31 Z M 231.9 573.85 C 236.82 573.85 240.15 569.61 240.15 563.75 C 240.15 560.33 238.76 553.55 231.8 553.55 C 225.3 553.55 224.58 560.53 224.58 564.85 C 224.58 571.93 229.04 573.82 231.9 573.82 Z M 272.3 568.6 C 272.145 569.87 270.92 573.65 267.54 575.89 C 266.31 576.705 264.57 577.73 260.27 577.73 C 252.74 577.73 248.27 572.07 248.27 564.33 C 248.27 556.07 252.27 549.53 261.17 549.53 C 268.9 549.53 272.67 555.65 272.67 565.13 L 253.07 565.13 C 253.07 570.69 255.68 573.9 260.86 573.9 C 265.11 573.9 267.62 570.64 267.77 568.65 L 272.28 568.65 Z M 267.52 561.52 C 267.264 557.39 265.52 553.57 260.04 553.57 C 255.89 553.57 252.61 557.39 252.61 561.52 L 267.51 561.52 Z M 297.52 576.92 L 293.01 576.92 L 293.01 560.52 C 293.01 555.88 291.68 553.54 287.27 553.54 C 284.71 553.54 280.2 555.17 280.2 562.41 L 280.2 576.91 L 275.69 576.91 L 275.69 550.21 L 279.94 550.21 L 279.94 553.98 L 280.043 553.98 C 281.015 552.55 283.523 549.44 288.133 549.44 C 292.283 549.44 297.503 551.12 297.503 558.72 L 297.503 576.82"/>
    <path fill="#999999" fill-rule="evenodd" stroke="none" transform="matrix(0.21243 0 0 0.2134 -13.110000000000014 -0.5500000000000114)" d="M 1144 325 C 1144 328.14 1143.214 331.07 1141.64 333.78 C 1140.066 336.49 1137.93 338.63 1135.22 340.19 C 1132.51 341.75 1129.58 342.53 1126.44 342.53 C 1123.31 342.53 1120.4 341.749 1117.68 340.19 C 1114.97 338.63 1112.83 336.49 1111.26 333.78 C 1109.69 331.07 1108.9 328.14 1108.9 325 C 1108.9 321.87 1109.684 318.95 1111.26 316.23 C 1112.83 313.51 1114.97 311.37 1117.68 309.81 C 1120.39 308.25 1123.31 307.47 1126.44 307.47 C 1129.58 307.47 1132.51 308.251 1135.22 309.81 C 1137.93 311.37 1140.07 313.51 1141.64 316.23 C 1143.21 318.95 1144 321.87 1144 325 Z M 1140.6 325 C 1140.6 321.09 1139.22 317.76 1136.45 315 C 1133.68 312.23 1130.35 310.85 1126.45 310.85 C 1122.54 310.85 1119.21 312.23 1116.45 315 C 1113.68 317.77 1112.3 321.1 1112.3 325 C 1112.3 328.9 1113.68 332.24 1116.45 335 C 1119.22 337.77 1122.55 339.15 1126.45 339.15 C 1130.36 339.15 1133.69 337.77 1136.45 335 C 1139.21 332.23 1140.6 328.9 1140.6 325 Z M 1118.5 315.62 L 1126.89 315.62 C 1129.26 315.62 1130.99 316.098 1132.05 317.06 C 1133.11 318.017 1133.65 319.3 1133.65 320.91 C 1133.65 322.17 1133.244 323.25 1132.43 324.17 C 1131.618 325.089 1130.34 325.76 1128.59 326.17 C 1129.31 326.446 1129.84 326.737 1130.18 327.043 C 1130.655 327.473 1131.153 328.103 1131.67 328.953 C 1131.7 329.014 1132.71 330.823 1134.7 334.373 L 1129.18 334.373 C 1127.39 330.803 1126.18 328.673 1125.57 327.973 C 1124.956 327.277 1124.34 326.923 1123.73 326.923 C 1123.592 326.923 1123.4 326.946 1123.156 326.992 L 1123.156 334.372 L 1118.486 334.372 Z M 1123.17 323.57 L 1125.19 323.57 C 1126.54 323.57 1127.49 323.352 1128.04 322.916 C 1128.591 322.478 1128.867 321.916 1128.867 321.226 C 1128.867 320.537 1128.602 319.976 1128.074 319.536 C 1127.545 319.099 1126.644 318.882 1125.374 318.882 L 1123.164 318.882 Z"/>
    <path fill="#5586a4" fill-rule="evenodd" stroke="none" transform="matrix(0.21243 0 0 0.2134 -13.110000000000014 -1.5199999999999818)" d="M 1144 325 C 1144 328.14 1143.214 331.07 1141.64 333.78 C 1140.066 336.49 1137.93 338.63 1135.22 340.19 C 1132.51 341.75 1129.58 342.53 1126.44 342.53 C 1123.31 342.53 1120.4 341.749 1117.68 340.19 C 1114.97 338.63 1112.83 336.49 1111.26 333.78 C 1109.69 331.07 1108.9 328.14 1108.9 325 C 1108.9 321.87 1109.684 318.95 1111.26 316.23 C 1112.83 313.51 1114.97 311.37 1117.68 309.81 C 1120.39 308.25 1123.31 307.47 1126.44 307.47 C 1129.58 307.47 1132.51 308.251 1135.22 309.81 C 1137.93 311.37 1140.07 313.51 1141.64 316.23 C 1143.21 318.95 1144 321.87 1144 325 Z M 1140.6 325 C 1140.6 321.09 1139.22 317.76 1136.45 315 C 1133.68 312.23 1130.35 310.85 1126.45 310.85 C 1122.54 310.85 1119.21 312.23 1116.45 315 C 1113.68 317.77 1112.3 321.1 1112.3 325 C 1112.3 328.9 1113.68 332.24 1116.45 335 C 1119.22 337.77 1122.55 339.15 1126.45 339.15 C 1130.36 339.15 1133.69 337.77 1136.45 335 C 1139.21 332.23 1140.6 328.9 1140.6 325 Z M 1118.5 315.62 L 1126.89 315.62 C 1129.26 315.62 1130.99 316.098 1132.05 317.06 C 1133.11 318.017 1133.65 319.3 1133.65 320.91 C 1133.65 322.17 1133.244 323.25 1132.43 324.17 C 1131.618 325.089 1130.34 325.76 1128.59 326.17 C 1129.31 326.446 1129.84 326.737 1130.18 327.043 C 1130.655 327.473 1131.153 328.103 1131.67 328.953 C 1131.7 329.014 1132.71 330.823 1134.7 334.373 L 1129.18 334.373 C 1127.39 330.803 1126.18 328.673 1125.57 327.973 C 1124.956 327.277 1124.34 326.923 1123.73 326.923 C 1123.592 326.923 1123.4 326.946 1123.156 326.992 L 1123.156 334.372 L 1118.486 334.372 Z M 1123.17 323.57 L 1125.19 323.57 C 1126.54 323.57 1127.49 323.352 1128.04 322.916 C 1128.591 322.478 1128.867 321.916 1128.867 321.226 C 1128.867 320.537 1128.602 319.976 1128.074 319.536 C 1127.545 319.099 1126.644 318.882 1125.374 318.882 L 1123.164 318.882 Z"/>
</svg>
