<svg width="64" height="64" viewBox="0 0 32 32" xmlns="http://www.w3.org/2000/svg" xmlns:usvg="https://github.com/RazrFalcon/resvg" usvg:version="0.13.1">
    <defs>
        <linearGradient id="A" x1="811.527" y1="574.895" x2="665.255" y2="573.732" gradientUnits="userSpaceOnUse">
            <stop offset="0" stop-color="#366a96"/>
            <stop offset="1" stop-color="#3679b0"/>
        </linearGradient>
        <linearGradient id="B" x1="862.824" y1="642.176" x2="573.276" y2="642.176" gradientUnits="userSpaceOnUse">
            <stop offset="0" stop-color="#ffc836"/>
            <stop offset="1" stop-color="#ffe873"/>
        </linearGradient>
    </defs>
    <path fill="url(#A)" stroke="none" transform="matrix(0.1617 0 0 0.158089 -107.53764 -81.66187)" d="M 716.255 544.487 C 716.255 530.864 719.908 523.453 740.077 519.924 C 753.77 517.524 771.327 517.224 787.704 519.924 C 800.639 522.059 811.526 531.694 811.526 544.487 L 811.526 589.432 C 811.526 602.614 800.956 613.412 787.704 613.412 L 740.077 613.412 C 723.913 613.412 710.29 627.194 710.29 642.775 L 710.29 664.339 L 693.914 664.339 C 680.062 664.339 671.997 654.351 668.609 640.375 C 664.039 621.599 664.233 610.412 668.609 592.43 C 672.403 576.743 684.526 568.466 698.379 568.466 L 763.899 568.466 L 763.899 562.466 L 716.254 562.466 L 716.254 544.486 Z"/>
    <path fill="url(#B)" stroke="none" transform="matrix(0.1617 0 0 0.158089 -107.53764 -81.66187)" d="M 811.527 688.32 C 811.527 701.943 799.704 708.843 787.705 712.284 C 769.653 717.472 755.165 716.678 740.078 712.284 C 727.478 708.614 716.256 701.114 716.256 688.32 L 716.256 643.375 C 716.256 630.44 727.038 619.395 740.078 619.395 L 787.705 619.395 C 803.569 619.395 817.492 605.685 817.492 589.432 L 817.492 568.468 L 835.35 568.468 C 849.22 568.468 855.75 578.773 859.172 592.432 C 863.936 611.402 864.148 625.589 859.172 640.377 C 854.355 654.741 849.202 664.341 835.35 664.341 L 763.9 664.341 L 763.9 670.341 L 811.527 670.341 L 811.527 688.321 Z"/>
    <path fill="#ffffff" stroke="none" transform="matrix(0.1617 0 0 0.158089 -107.53764 -81.66187)" d="M 728.166 541.505 C 728.166 536.529 732.154 532.505 737.096 532.505 C 742.019 532.505 746.026 536.528 746.026 541.505 C 746.026 546.465 742.02 550.487 737.096 550.487 C 732.156 550.487 728.166 546.464 728.166 541.505 Z M 781.756 691.303 C 781.756 686.343 785.762 682.321 790.686 682.321 C 795.626 682.321 799.616 686.344 799.616 691.303 C 799.616 696.279 795.628 700.303 790.686 700.303 C 785.763 700.303 781.756 696.28 781.756 691.303 Z"/>
</svg>
