<svg width="23" height="20.46348" viewBox="-11.5 -10.23174 23 20.46348" xmlns="http://www.w3.org/2000/svg" xmlns:usvg="https://github.com/RazrFalcon/resvg" usvg:version="0.13.1">
    <defs/>
    <path fill="#61dafb" stroke="none" d="M 2.05 0 C 2.05 1.13218373715 1.13218373715 2.05 0 2.05 C -1.13218373715 2.05 -2.05 1.13218373715 -2.05 0 C -2.05 -1.13218373715 -1.13218373715 -2.05 0 -2.05 C 1.13218373715 -2.05 2.05 -1.13218373715 2.05 0 Z"/>
    <path fill="none" stroke="#61dafb" d="M 11 0 C 11 2.31959594929 6.07513224814 4.2 0 4.2 C -6.07513224814 4.2 -11 2.31959594929 -11 0 C -11 -2.31959594929 -6.07513224814 -4.2 0 -4.2 C 6.07513224814 -4.2 11 -2.31959594929 11 0 Z"/>
    <path fill="none" stroke="#61dafb" transform="matrix(0.5000000000000001 0.8660254037844386 -0.8660254037844386 0.5000000000000001 0 0)" d="M 11 0 C 11 2.31959594929 6.07513224814 4.2 0 4.2 C -6.07513224814 4.2 -11 2.31959594929 -11 0 C -11 -2.31959594929 -6.07513224814 -4.2 0 -4.2 C 6.07513224814 -4.2 11 -2.31959594929 11 0 Z"/>
    <path fill="none" stroke="#61dafb" transform="matrix(-0.4999999999999998 0.8660254037844387 -0.8660254037844387 -0.4999999999999998 0 0)" d="M 11 0 C 11 2.31959594929 6.07513224814 4.2 0 4.2 C -6.07513224814 4.2 -11 2.31959594929 -11 0 C -11 -2.31959594929 -6.07513224814 -4.2 0 -4.2 C 6.07513224814 -4.2 11 -2.31959594929 11 0 Z"/>
</svg>
