<svg width="106" height="106" viewBox="0 0 106 106" xmlns="http://www.w3.org/2000/svg" xmlns:usvg="https://github.com/RazrFalcon/resvg" usvg:version="0.13.1">
    <defs>
        <mask id="holes" x="-0.1" y="-0.1" width="1.2" height="1.2">
            <path fill="#ffffff" stroke="none" d="M -60 -60 L 60 -60 L 60 60 L -60 60 Z"/>
            <path id="hole" fill="#000000" stroke="none" d="M 3 -40 C 3 -38.34314575051 1.65685424949 -37 0 -37 C -1.65685424949 -37 -3 -38.34314575051 -3 -40 C -3 -41.65685424949 -1.65685424949 -43 -0 -43 C 1.65685424949 -43 3 -41.65685424949 3 -40 Z"/>
            <path fill="#000000" stroke="none" transform="matrix(0.30901699437494745 0.9510565162951535 -0.9510565162951535 0.30901699437494745 0 0)" d="M 3 -40 C 3 -38.34314575051 1.65685424949 -37 0 -37 C -1.65685424949 -37 -3 -38.34314575051 -3 -40 C -3 -41.65685424949 -1.65685424949 -43 -0 -43 C 1.65685424949 -43 3 -41.65685424949 3 -40 Z"/>
            <path fill="#000000" stroke="none" transform="matrix(-0.8090169943749473 0.5877852522924732 -0.5877852522924732 -0.8090169943749473 0 0)" d="M 3 -40 C 3 -38.34314575051 1.65685424949 -37 0 -37 C -1.65685424949 -37 -3 -38.34314575051 -3 -40 C -3 -41.65685424949 -1.65685424949 -43 -0 -43 C 1.65685424949 -43 3 -41.65685424949 3 -40 Z"/>
            <path fill="#000000" stroke="none" transform="matrix(-0.8090169943749476 -0.587785252292473 0.587785252292473 -0.8090169943749476 0 0)" d="M 3 -40 C 3 -38.34314575051 1.65685424949 -37 0 -37 C -1.65685424949 -37 -3 -38.34314575051 -3 -40 C -3 -41.65685424949 -1.65685424949 -43 -0 -43 C 1.65685424949 -43 3 -41.65685424949 3 -40 Z"/>
            <path fill="#000000" stroke="none" transform="matrix(0.30901699437494723 -0.9510565162951536 0.9510565162951536 0.30901699437494723 0 0)" d="M 3 -40 C 3 -38.34314575051 1.65685424949 -37 0 -37 C -1.65685424949 -37 -3 -38.34314575051 -3 -40 C -3 -41.65685424949 -1.65685424949 -43 -0 -43 C 1.65685424949 -43 3 -41.65685424949 3 -40 Z"/>
        </mask>
    </defs>
    <path id="r" fill="#000000" stroke="#000000" stroke-linejoin="round" transform="matrix(1 0 0 1 53.5 53.5)" d="M -9 -15 L 4 -15 C 12 -15 12 -7 4 -7 L -9 -7 Z M -40 22 L 0 22 L 0 11 L -9 11 L -9 3 L 1 3 C 12 3 6 22 15 22 L 40 22 L 40 3 L 34 3 L 34 5 C 34 13 25 12 24 7 C 23 2 19 -2 18 -2 C 33 -10 24 -26 12 -26 L -35 -26 L -35 -15 L -25 -15 L -25 11 L -40 11 Z"/>
    <g id="gear" mask="url(#holes)" transform="matrix(1 0 0 1 53 53)">
        <path fill="none" stroke="#000000" stroke-width="9" d="M 43 0 C 43 23.74824424272 23.74824424272 43 0 43 C -23.74824424272 43 -43 23.74824424272 -43 0 C -43 -23.74824424272 -23.74824424272 -43 -0 -43 C 23.74824424272 -43 43 -23.74824424272 43 0 Z"/>
        <path id="cog" fill="#000000" stroke="#000000" stroke-width="3" stroke-linejoin="round" d="M 46 3 L 51 0 L 46 -3 Z"/>
        <path fill="#000000" stroke="#000000" stroke-width="3" stroke-linejoin="round" transform="matrix(0.9807852804032304 0.19509032201612825 -0.19509032201612825 0.9807852804032304 0 0)" d="M 46 3 L 51 0 L 46 -3 Z"/>
        <path fill="#000000" stroke="#000000" stroke-width="3" stroke-linejoin="round" transform="matrix(0.9238795325112867 0.3826834323650898 -0.3826834323650898 0.9238795325112867 0 0)" d="M 46 3 L 51 0 L 46 -3 Z"/>
        <path fill="#000000" stroke="#000000" stroke-width="3" stroke-linejoin="round" transform="matrix(0.8314696123025452 0.5555702330196022 -0.5555702330196022 0.8314696123025452 0 0)" d="M 46 3 L 51 0 L 46 -3 Z"/>
        <path fill="#000000" stroke="#000000" stroke-width="3" stroke-linejoin="round" transform="matrix(0.7071067811865476 0.7071067811865475 -0.7071067811865475 0.7071067811865476 0 0)" d="M 46 3 L 51 0 L 46 -3 Z"/>
        <path fill="#000000" stroke="#000000" stroke-width="3" stroke-linejoin="round" transform="matrix(0.5555702330196023 0.8314696123025452 -0.8314696123025452 0.5555702330196023 0 0)" d="M 46 3 L 51 0 L 46 -3 Z"/>
        <path fill="#000000" stroke="#000000" stroke-width="3" stroke-linejoin="round" transform="matrix(0.38268343236508984 0.9238795325112867 -0.9238795325112867 0.38268343236508984 0 0)" d="M 46 3 L 51 0 L 46 -3 Z"/>
        <path fill="#000000" stroke="#000000" stroke-width="3" stroke-linejoin="round" transform="matrix(0.19509032201612833 0.9807852804032304 -0.9807852804032304 0.19509032201612833 0 0)" d="M 46 3 L 51 0 L 46 -3 Z"/>
        <path fill="#000000" stroke="#000000" stroke-width="3" stroke-linejoin="round" transform="matrix(0.00000000000000006123233995736766 1 -1 0.00000000000000006123233995736766 0 0)" d="M 46 3 L 51 0 L 46 -3 Z"/>
        <path fill="#000000" stroke="#000000" stroke-width="3" stroke-linejoin="round" transform="matrix(-0.1950903220161282 0.9807852804032304 -0.9807852804032304 -0.1950903220161282 0 0)" d="M 46 3 L 51 0 L 46 -3 Z"/>
        <path fill="#000000" stroke="#000000" stroke-width="3" stroke-linejoin="round" transform="matrix(-0.3826834323650897 0.9238795325112867 -0.9238795325112867 -0.3826834323650897 0 0)" d="M 46 3 L 51 0 L 46 -3 Z"/>
        <path fill="#000000" stroke="#000000" stroke-width="3" stroke-linejoin="round" transform="matrix(-0.555570233019602 0.8314696123025455 -0.8314696123025455 -0.555570233019602 0 0)" d="M 46 3 L 51 0 L 46 -3 Z"/>
        <path fill="#000000" stroke="#000000" stroke-width="3" stroke-linejoin="round" transform="matrix(-0.7071067811865475 0.7071067811865476 -0.7071067811865476 -0.7071067811865475 0 0)" d="M 46 3 L 51 0 L 46 -3 Z"/>
        <path fill="#000000" stroke="#000000" stroke-width="3" stroke-linejoin="round" transform="matrix(-0.8314696123025453 0.5555702330196022 -0.5555702330196022 -0.8314696123025453 0 0)" d="M 46 3 L 51 0 L 46 -3 Z"/>
        <path fill="#000000" stroke="#000000" stroke-width="3" stroke-linejoin="round" transform="matrix(-0.9238795325112867 0.3826834323650899 -0.3826834323650899 -0.9238795325112867 0 0)" d="M 46 3 L 51 0 L 46 -3 Z"/>
        <path fill="#000000" stroke="#000000" stroke-width="3" stroke-linejoin="round" transform="matrix(-0.9807852804032304 0.1950903220161286 -0.1950903220161286 -0.9807852804032304 0 0)" d="M 46 3 L 51 0 L 46 -3 Z"/>
        <path fill="#000000" stroke="#000000" stroke-width="3" stroke-linejoin="round" transform="matrix(-1 0.00000000000000012246467991473532 -0.00000000000000012246467991473532 -1 0 0)" d="M 46 3 L 51 0 L 46 -3 Z"/>
        <path fill="#000000" stroke="#000000" stroke-width="3" stroke-linejoin="round" transform="matrix(-0.9807852804032304 -0.19509032201612836 0.19509032201612836 -0.9807852804032304 0 0)" d="M 46 3 L 51 0 L 46 -3 Z"/>
        <path fill="#000000" stroke="#000000" stroke-width="3" stroke-linejoin="round" transform="matrix(-0.9238795325112868 -0.38268343236508967 0.38268343236508967 -0.9238795325112868 0 0)" d="M 46 3 L 51 0 L 46 -3 Z"/>
        <path fill="#000000" stroke="#000000" stroke-width="3" stroke-linejoin="round" transform="matrix(-0.8314696123025455 -0.555570233019602 0.555570233019602 -0.8314696123025455 0 0)" d="M 46 3 L 51 0 L 46 -3 Z"/>
        <path fill="#000000" stroke="#000000" stroke-width="3" stroke-linejoin="round" transform="matrix(-0.7071067811865477 -0.7071067811865475 0.7071067811865475 -0.7071067811865477 0 0)" d="M 46 3 L 51 0 L 46 -3 Z"/>
        <path fill="#000000" stroke="#000000" stroke-width="3" stroke-linejoin="round" transform="matrix(-0.5555702330196022 -0.8314696123025452 0.8314696123025452 -0.5555702330196022 0 0)" d="M 46 3 L 51 0 L 46 -3 Z"/>
        <path fill="#000000" stroke="#000000" stroke-width="3" stroke-linejoin="round" transform="matrix(-0.38268343236509034 -0.9238795325112865 0.9238795325112865 -0.38268343236509034 0 0)" d="M 46 3 L 51 0 L 46 -3 Z"/>
        <path fill="#000000" stroke="#000000" stroke-width="3" stroke-linejoin="round" transform="matrix(-0.19509032201612866 -0.9807852804032303 0.9807852804032303 -0.19509032201612866 0 0)" d="M 46 3 L 51 0 L 46 -3 Z"/>
        <path fill="#000000" stroke="#000000" stroke-width="3" stroke-linejoin="round" transform="matrix(-0.00000000000000018369701987210297 -1 1 -0.00000000000000018369701987210297 0 0)" d="M 46 3 L 51 0 L 46 -3 Z"/>
        <path fill="#000000" stroke="#000000" stroke-width="3" stroke-linejoin="round" transform="matrix(0.1950903220161283 -0.9807852804032304 0.9807852804032304 0.1950903220161283 0 0)" d="M 46 3 L 51 0 L 46 -3 Z"/>
        <path fill="#000000" stroke="#000000" stroke-width="3" stroke-linejoin="round" transform="matrix(0.38268343236509 -0.9238795325112866 0.9238795325112866 0.38268343236509 0 0)" d="M 46 3 L 51 0 L 46 -3 Z"/>
        <path fill="#000000" stroke="#000000" stroke-width="3" stroke-linejoin="round" transform="matrix(0.5555702330196018 -0.8314696123025455 0.8314696123025455 0.5555702330196018 0 0)" d="M 46 3 L 51 0 L 46 -3 Z"/>
        <path fill="#000000" stroke="#000000" stroke-width="3" stroke-linejoin="round" transform="matrix(0.7071067811865474 -0.7071067811865477 0.7071067811865477 0.7071067811865474 0 0)" d="M 46 3 L 51 0 L 46 -3 Z"/>
        <path fill="#000000" stroke="#000000" stroke-width="3" stroke-linejoin="round" transform="matrix(0.8314696123025452 -0.5555702330196022 0.5555702330196022 0.8314696123025452 0 0)" d="M 46 3 L 51 0 L 46 -3 Z"/>
        <path fill="#000000" stroke="#000000" stroke-width="3" stroke-linejoin="round" transform="matrix(0.9238795325112865 -0.3826834323650904 0.3826834323650904 0.9238795325112865 0 0)" d="M 46 3 L 51 0 L 46 -3 Z"/>
        <path fill="#000000" stroke="#000000" stroke-width="3" stroke-linejoin="round" transform="matrix(0.9807852804032303 -0.19509032201612872 0.19509032201612872 0.9807852804032303 0 0)" d="M 46 3 L 51 0 L 46 -3 Z"/>
        <path id="mount" fill="#000000" stroke="#000000" stroke-width="6" stroke-linejoin="round" d="M -7 -42 L 0 -35 L 7 -42 Z"/>
        <path fill="#000000" stroke="#000000" stroke-width="6" stroke-linejoin="round" transform="matrix(0.30901699437494745 0.9510565162951535 -0.9510565162951535 0.30901699437494745 0 0)" d="M -7 -42 L 0 -35 L 7 -42 Z"/>
        <path fill="#000000" stroke="#000000" stroke-width="6" stroke-linejoin="round" transform="matrix(-0.8090169943749473 0.5877852522924732 -0.5877852522924732 -0.8090169943749473 0 0)" d="M -7 -42 L 0 -35 L 7 -42 Z"/>
        <path fill="#000000" stroke="#000000" stroke-width="6" stroke-linejoin="round" transform="matrix(-0.8090169943749476 -0.587785252292473 0.587785252292473 -0.8090169943749476 0 0)" d="M -7 -42 L 0 -35 L 7 -42 Z"/>
        <path fill="#000000" stroke="#000000" stroke-width="6" stroke-linejoin="round" transform="matrix(0.30901699437494723 -0.9510565162951536 0.9510565162951536 0.30901699437494723 0 0)" d="M -7 -42 L 0 -35 L 7 -42 Z"/>
    </g>
</svg>
