<svg width="2500" height="2500" viewBox="0 0 400 400" xmlns="http://www.w3.org/2000/svg" xmlns:usvg="https://github.com/RazrFalcon/resvg" usvg:version="0.13.1">
    <defs/>
    <path fill="#007acc" stroke="none" d="M 0 200 L 0 0 L 400 0 L 400 400 L 0 400"/>
    <path fill="#ffffff" stroke="none" d="M 87.7 200.7 L 87.7 217 L 139.7 217 L 139.7 365 L 176.6 365 L 176.6 217 L 228.6 217 L 228.6 201 C 228.6 192 228.6 184.7 228.2 184.5 C 228.2 184.2 196.5 184.1 158 184.1 L 88 184.4 L 88 200.8 L 87.7 200.7 Z M 321.4 184 C 331.6 186.4 339.4 191 346.4 198.3 C 350.1 202.3 355.6 209.3 356 211.1 C 356 211.7 338.7 223.4 328.2 229.9 C 327.8 230.2 326.2 228.5 324.6 225.9 C 319.4 218.5 314.1 215.3 305.8 214.7 C 293.8 213.9 285.8 220.2 285.8 230.7 C 285.8 233.9 286.4 235.7 287.6 238.3 C 290.3 243.8 295.3 247.1 310.8 253.9 C 339.4 266.2 351.8 274.3 359.3 285.9 C 367.8 298.9 369.7 319.3 364 334.6 C 357.6 351.3 342 362.6 319.7 366.3 C 312.7 367.5 296.7 367.3 289.2 366 C 273.2 363 257.9 355 248.5 344.7 C 244.8 340.7 237.7 330 238.1 329.3 L 241.9 326.9 L 256.9 318.2 L 268.2 311.6 L 270.8 315.1 C 274.1 320.3 281.5 327.3 285.8 329.7 C 298.8 336.4 316.2 335.5 324.8 327.7 C 328.5 324.3 330.1 320.7 330.1 315.7 C 330.1 311.1 329.4 309 327.1 305.5 C 323.9 301.1 317.5 297.5 299.5 289.5 C 278.8 280.7 270 275.1 261.8 266.5 C 257.1 261.3 252.8 253.2 250.8 246.5 C 249.3 240.7 248.8 226.5 250.2 220.8 C 254.5 200.8 269.6 186.8 291.2 182.8 C 298.2 181.4 314.7 182 321.6 183.8 L 321.4 184 Z"/>
</svg>
